<?xml version="1.0" standalone="no"?>
<!DOCTYPE svg PUBLIC "-//W3C//DTD SVG 20010904//EN"
 "http://www.w3.org/TR/2001/REC-SVG-20010904/DTD/svg10.dtd">
<svg version="1.0" xmlns="http://www.w3.org/2000/svg"
 width="500.000000pt" height="500.000000pt" viewBox="0 0 500.000000 500.000000"
 preserveAspectRatio="xMidYMid meet">
<metadata>
Created by potrace 1.11, written by Peter Selinger 2001-2013
</metadata>
<g transform="translate(0.000000,500.000000) scale(0.100000,-0.100000)"
fill="#000000" stroke="none">
<path d="M4090 3520 c-215 -46 -369 -149 -469 -314 -64 -107 -98 -216 -136
-431 -9 -55 -23 -136 -31 -180 -8 -44 -19 -105 -24 -135 -5 -30 -17 -93 -26
-139 -24 -127 -16 -355 16 -436 46 -119 166 -205 333 -239 114 -24 394 -22
514 4 252 53 421 188 504 403 27 71 59 202 59 243 0 12 -39 14 -234 14 l-235
0 -16 -56 c-42 -145 -132 -216 -276 -217 -62 -1 -83 4 -119 24 -79 44 -97 121
-66 280 8 41 29 157 46 259 44 261 59 329 86 381 76 153 289 207 395 100 71
-71 74 -230 6 -363 l-35 -68 235 0 234 0 33 73 c43 93 63 164 74 263 32 285
-104 475 -387 538 -103 23 -365 21 -481 -4z"/>
<path d="M630 3520 c-8 -5 -28 -107 -100 -520 -5 -30 -17 -93 -25 -140 -8 -47
-20 -110 -25 -140 -5 -30 -16 -93 -25 -140 -8 -47 -40 -227 -70 -400 -30 -173
-62 -350 -70 -393 -8 -42 -15 -89 -15 -102 l0 -25 590 0 590 0 4 23 c3 12 12
63 21 112 9 50 20 110 25 135 5 25 12 66 16 93 l6 47 -349 0 c-192 0 -352 2
-355 5 -3 4 -2 24 3 45 5 22 13 68 19 102 8 59 36 219 75 433 9 50 23 126 30
170 8 44 21 121 30 170 9 50 20 115 25 145 11 64 33 191 53 303 8 42 11 77 8
77 -62 4 -455 4 -461 0z"/>
<path d="M1831 3522 c-5 -2 29 -114 76 -250 47 -136 89 -258 93 -272 4 -14 54
-158 110 -320 108 -314 105 -299 81 -430 -28 -157 -43 -243 -56 -315 -7 -44
-21 -118 -29 -165 -9 -47 -16 -91 -16 -98 0 -10 51 -12 237 -10 l238 3 6 35
c50 273 79 440 103 586 13 73 21 95 58 148 24 34 81 117 128 185 47 67 109
157 139 199 30 42 114 163 186 267 73 105 169 243 213 307 45 65 82 121 82
125 0 5 -107 7 -237 6 -181 -2 -239 -5 -244 -15 -5 -7 -102 -152 -216 -323
-179 -266 -211 -310 -233 -310 -23 0 -28 13 -123 320 -54 176 -100 321 -101
323 -4 4 -484 8 -495 4z"/>
</g>
</svg>
