<svg id="svg" version="1.1" width="400" height="400" viewBox="0 0 400 400" xmlns="http://www.w3.org/2000/svg" xmlns:xlink="http://www.w3.org/1999/xlink" ><g id="svgg"><path id="path0" d="M336.200 117.198 C 334.440 117.384,332.371 117.730,331.603 117.968 C 330.834 118.205,329.590 118.400,328.838 118.400 C 328.086 118.400,326.554 118.664,325.435 118.986 C 324.316 119.309,322.320 119.866,321.000 120.224 C 311.101 122.910,300.800 129.436,294.716 136.876 C 288.791 144.121,284.118 153.785,282.083 163.001 C 280.672 169.394,279.568 175.280,279.177 178.499 C 278.997 179.983,278.758 181.344,278.648 181.523 C 278.463 181.822,277.994 184.337,276.622 192.400 C 275.470 199.169,275.122 201.130,274.600 203.800 C 274.299 205.340,273.760 208.310,273.402 210.400 C 273.044 212.490,272.471 215.550,272.128 217.200 C 271.142 221.947,270.920 237.377,271.777 241.605 C 274.966 257.344,283.896 265.083,303.000 268.665 C 308.158 269.632,329.628 269.900,333.970 269.052 C 335.637 268.727,337.810 268.345,338.800 268.205 C 342.487 267.681,348.468 266.192,351.000 265.167 C 355.126 263.496,356.647 262.774,359.537 261.112 C 370.570 254.769,377.639 246.326,381.901 234.400 C 384.912 225.977,386.745 215.971,385.374 215.445 C 384.036 214.932,350.190 215.172,349.493 215.700 C 349.130 215.975,348.620 217.100,348.361 218.200 C 345.065 232.157,334.959 239.242,321.259 237.201 C 309.915 235.511,307.202 228.243,311.029 209.800 C 311.349 208.260,311.802 205.740,312.037 204.200 C 312.272 202.660,312.629 200.320,312.831 199.000 C 313.033 197.680,313.461 195.340,313.782 193.800 C 314.104 192.260,314.649 189.200,314.995 187.000 C 315.340 184.800,315.890 181.740,316.217 180.200 C 316.543 178.660,316.810 176.860,316.811 176.200 C 316.813 170.791,321.107 159.787,324.729 155.907 C 332.408 147.682,347.380 146.377,353.543 153.396 C 356.365 156.610,358.379 163.512,357.630 167.399 C 357.418 168.499,357.128 170.750,356.987 172.400 C 356.626 176.609,354.319 182.778,351.862 186.101 C 350.500 187.943,350.915 187.987,369.519 187.994 L 386.838 188.000 387.724 187.044 C 388.694 185.997,392.000 179.538,392.000 178.689 C 392.000 178.398,392.157 177.989,392.350 177.780 C 393.031 177.039,394.664 171.087,396.432 162.894 C 398.308 154.203,395.479 139.805,390.637 133.400 C 385.027 125.979,372.438 118.400,365.723 118.400 C 365.237 118.400,363.795 118.115,362.520 117.767 C 359.805 117.026,341.572 116.632,336.200 117.198 M49.867 118.667 C 49.720 118.813,49.600 119.670,49.600 120.569 C 49.600 121.469,49.416 122.834,49.192 123.603 C 48.968 124.371,48.505 126.710,48.163 128.800 C 47.821 130.890,47.300 133.950,47.005 135.600 C 46.710 137.250,46.189 140.220,45.847 142.200 C 45.505 144.180,44.848 147.780,44.387 150.200 C 43.925 152.620,43.395 155.680,43.208 157.000 C 43.021 158.320,42.474 161.470,41.991 164.000 C 41.509 166.530,40.973 169.680,40.801 171.000 C 40.628 172.320,40.270 174.300,40.006 175.400 C 39.741 176.500,39.367 178.480,39.175 179.800 C 38.983 181.120,38.446 184.180,37.981 186.600 C 37.515 189.020,36.978 192.080,36.787 193.400 C 36.596 194.720,36.068 197.780,35.615 200.200 C 35.162 202.620,34.616 205.829,34.403 207.331 C 34.189 208.833,33.833 210.735,33.612 211.557 C 33.390 212.379,33.042 214.120,32.837 215.426 C 31.809 221.993,31.177 225.532,30.808 226.797 C 30.584 227.566,30.400 228.789,30.400 229.515 C 30.400 230.241,30.145 231.953,29.834 233.318 C 29.045 236.776,28.376 240.524,27.983 243.699 C 27.799 245.183,27.552 246.555,27.433 246.747 C 27.231 247.074,26.342 252.165,25.608 257.200 C 25.432 258.410,24.998 260.626,24.644 262.125 C 24.290 263.623,24.000 265.287,24.000 265.822 L 24.000 266.793 70.660 266.897 C 101.301 266.965,117.508 266.863,117.866 266.600 C 118.167 266.380,118.600 265.030,118.830 263.600 C 119.060 262.170,119.508 259.650,119.825 258.000 C 120.991 251.945,121.307 250.154,121.586 248.000 C 121.843 246.021,122.468 242.640,123.607 237.064 C 123.825 235.999,123.901 234.964,123.778 234.764 C 123.646 234.551,112.045 234.400,95.825 234.400 C 64.549 234.400,66.801 234.646,67.549 231.311 C 67.958 229.483,69.380 221.517,69.746 219.000 C 69.842 218.340,70.315 215.730,70.797 213.200 C 71.279 210.670,71.817 207.610,71.992 206.400 C 72.308 204.213,72.779 201.558,73.802 196.200 C 74.096 194.660,74.545 192.140,74.800 190.600 C 75.055 189.060,75.504 186.450,75.798 184.800 C 76.288 182.047,76.820 178.961,78.003 172.000 C 78.246 170.570,78.628 168.500,78.853 167.400 C 79.303 165.197,80.287 159.430,80.800 156.000 C 80.981 154.790,81.415 152.483,81.764 150.874 C 82.114 149.264,82.400 147.477,82.400 146.902 C 82.400 146.327,82.568 145.304,82.774 144.628 C 83.149 143.395,84.197 137.708,84.805 133.600 C 85.523 128.751,86.377 123.949,86.775 122.515 C 87.006 121.682,87.197 120.415,87.198 119.700 L 87.200 118.400 68.667 118.400 C 58.473 118.400,50.013 118.520,49.867 118.667 M146.400 118.841 C 146.400 119.341,150.057 130.262,154.421 142.800 C 155.992 147.310,157.428 151.540,157.614 152.200 C 157.799 152.860,158.600 155.200,159.393 157.400 C 160.186 159.600,161.629 163.740,162.599 166.600 C 163.569 169.460,165.643 175.490,167.208 180.000 C 168.774 184.510,170.205 188.740,170.389 189.400 C 170.573 190.060,172.016 194.290,173.595 198.800 C 175.175 203.310,176.632 207.540,176.834 208.200 C 177.228 209.487,176.961 213.832,176.367 215.800 C 176.036 216.898,175.270 221.220,174.416 226.800 C 174.231 228.010,173.870 229.900,173.614 231.000 C 173.358 232.100,172.998 234.080,172.814 235.400 C 172.629 236.720,172.081 239.870,171.594 242.400 C 171.108 244.930,170.567 247.990,170.394 249.200 C 170.220 250.410,169.688 253.470,169.213 256.000 C 168.163 261.584,167.482 266.416,167.713 266.646 C 167.837 266.771,192.820 266.879,204.057 266.804 C 204.887 266.799,205.209 266.010,205.611 263.000 C 205.787 261.680,206.327 258.530,206.811 256.000 C 207.295 253.470,207.835 250.410,208.010 249.200 C 208.185 247.990,208.698 245.020,209.148 242.600 C 209.599 240.180,210.248 236.580,210.592 234.600 C 210.935 232.620,211.315 230.730,211.437 230.400 C 211.558 230.070,211.821 228.540,212.021 227.000 C 212.222 225.460,212.765 222.220,213.229 219.800 C 213.693 217.380,214.208 214.410,214.374 213.200 C 214.818 209.953,214.698 210.142,231.367 186.393 C 233.145 183.859,235.680 180.214,237.000 178.293 C 238.320 176.373,240.628 173.046,242.129 170.900 C 245.728 165.755,249.652 160.104,250.400 158.989 C 250.730 158.497,252.530 155.905,254.400 153.230 C 256.270 150.555,258.700 147.069,259.801 145.483 C 260.901 143.897,263.431 140.260,265.422 137.400 C 271.825 128.201,272.617 127.058,274.977 123.600 C 276.254 121.730,277.546 119.915,277.850 119.568 C 278.830 118.444,278.129 118.400,259.368 118.400 L 240.869 118.400 223.983 143.700 C 204.279 173.223,206.343 170.470,204.021 170.319 C 201.903 170.181,201.473 169.553,199.965 164.400 C 199.482 162.750,198.577 159.780,197.953 157.800 C 197.329 155.820,196.171 152.040,195.379 149.400 C 194.587 146.760,193.705 143.880,193.419 143.000 C 192.933 141.504,192.315 139.512,189.203 129.400 C 188.526 127.200,187.599 124.140,187.143 122.600 C 186.686 121.060,186.178 119.530,186.013 119.200 C 185.625 118.425,146.400 118.069,146.400 118.841 " stroke="none" fill="#050505" fill-rule="evenodd"></path><path id="path1" d="M0.000 200.000 L 0.000 400.000 200.000 400.000 L 400.000 400.000 400.000 200.000 L 400.000 0.000 200.000 0.000 L 0.000 0.000 0.000 200.000 M361.395 116.831 C 377.894 119.781,387.606 125.825,393.489 136.800 C 397.103 143.542,398.817 156.431,397.000 163.200 C 396.675 164.410,396.407 165.879,396.405 166.465 C 396.400 167.618,393.703 176.792,392.603 179.400 C 391.286 182.522,389.108 186.613,388.290 187.500 L 387.461 188.400 369.210 188.400 C 348.828 188.400,349.362 188.476,351.167 185.841 C 354.168 181.464,355.909 176.595,356.385 171.250 C 356.574 169.132,356.860 167.068,357.021 166.663 C 357.920 164.399,355.347 156.262,352.945 153.776 C 345.513 146.081,327.846 149.610,322.541 159.850 C 322.133 160.636,321.459 161.937,321.043 162.740 C 319.541 165.639,318.409 170.712,316.212 184.400 C 315.912 186.270,315.486 188.610,315.266 189.600 C 315.045 190.590,314.571 193.290,314.212 195.600 C 313.853 197.910,313.377 200.700,313.154 201.800 C 312.931 202.900,312.494 205.330,312.183 207.200 C 311.872 209.070,311.350 212.130,311.024 214.000 C 308.477 228.609,311.234 234.937,320.800 236.431 C 334.632 238.592,344.476 231.854,347.606 218.085 C 348.409 214.556,346.931 214.800,367.455 214.800 C 384.907 214.800,387.640 214.964,387.016 215.974 C 386.903 216.157,386.627 217.633,386.404 219.253 C 381.543 254.490,358.432 271.267,316.128 270.271 C 287.596 269.598,273.281 259.877,270.753 239.459 C 270.228 235.211,270.538 221.180,271.219 218.400 C 271.462 217.410,271.929 214.980,272.258 213.000 C 272.587 211.020,273.101 208.050,273.401 206.400 C 274.239 201.789,275.163 196.530,275.756 193.000 C 276.390 189.227,277.039 185.664,277.794 181.800 C 278.096 180.260,278.640 177.200,279.004 175.000 C 282.364 154.695,287.519 142.867,297.236 133.170 C 299.701 130.711,306.319 125.600,307.040 125.600 C 307.137 125.600,307.955 125.134,308.858 124.563 C 312.557 122.228,319.185 119.775,325.400 118.440 C 327.600 117.967,330.300 117.376,331.400 117.126 C 336.056 116.068,356.028 115.872,361.395 116.831 M87.608 118.210 C 88.014 118.699,88.017 119.354,87.623 121.510 C 87.353 122.990,86.894 125.640,86.604 127.400 C 86.314 129.160,85.778 132.220,85.412 134.200 C 85.046 136.180,84.492 139.330,84.180 141.200 C 83.869 143.070,83.231 146.670,82.764 149.200 C 82.296 151.730,81.777 154.700,81.608 155.800 C 81.440 156.900,80.912 159.960,80.434 162.600 C 79.957 165.240,79.395 168.480,79.185 169.800 C 78.976 171.120,78.543 173.640,78.223 175.400 C 77.904 177.160,77.356 180.220,77.006 182.200 C 76.656 184.180,76.118 187.150,75.809 188.800 C 75.270 191.679,75.073 192.809,73.783 200.400 C 73.465 202.270,72.925 205.330,72.582 207.200 C 72.240 209.070,71.701 212.130,71.386 214.000 C 71.070 215.870,70.447 219.380,70.002 221.800 C 69.556 224.220,69.013 227.453,68.796 228.983 C 68.579 230.514,68.303 232.074,68.184 232.450 C 67.815 233.612,68.062 233.622,95.505 233.606 C 121.380 233.590,124.800 233.728,124.800 234.790 C 124.800 234.962,124.544 236.339,124.232 237.851 C 123.919 239.363,123.372 242.220,123.016 244.200 C 122.661 246.180,122.105 249.240,121.781 251.000 C 121.457 252.760,121.028 255.190,120.827 256.400 C 120.626 257.610,120.179 260.220,119.833 262.200 C 119.486 264.180,119.202 265.922,119.202 266.071 C 119.193 267.630,120.135 267.600,71.271 267.594 C 44.424 267.590,24.359 267.435,24.033 267.229 C 23.327 266.782,23.378 264.417,24.176 260.600 C 24.497 259.060,25.056 256.000,25.418 253.800 C 25.780 251.600,26.317 248.540,26.612 247.000 C 26.906 245.460,27.364 242.940,27.629 241.400 C 28.849 234.314,29.187 232.369,29.768 229.099 C 30.110 227.174,30.638 224.114,30.942 222.299 C 31.665 217.978,32.318 214.446,33.031 211.000 C 33.350 209.460,33.606 207.840,33.600 207.400 C 33.594 206.960,33.855 205.340,34.180 203.800 C 34.505 202.260,35.058 199.290,35.409 197.200 C 36.286 191.978,37.558 184.762,38.194 181.400 C 38.485 179.860,39.021 176.800,39.384 174.600 C 39.746 172.400,40.225 169.700,40.448 168.600 C 40.670 167.500,41.108 165.070,41.420 163.200 C 41.733 161.330,42.169 158.720,42.390 157.400 C 42.611 156.080,43.076 153.470,43.423 151.600 C 43.770 149.730,44.321 146.670,44.647 144.800 C 44.974 142.930,45.489 140.050,45.792 138.400 C 46.095 136.750,46.642 133.600,47.007 131.400 C 47.372 129.200,47.912 126.140,48.206 124.600 C 48.500 123.060,48.861 121.080,49.006 120.200 C 49.464 117.441,48.267 117.600,68.600 117.600 C 84.696 117.600,87.168 117.679,87.608 118.210 M186.161 118.218 C 186.501 118.558,186.968 119.538,187.199 120.396 C 187.430 121.254,188.064 123.361,188.608 125.078 C 189.153 126.795,189.896 129.190,190.261 130.400 C 190.625 131.610,191.153 133.320,191.433 134.200 C 191.714 135.080,192.577 137.870,193.352 140.400 C 194.127 142.930,195.568 147.610,196.554 150.800 C 197.541 153.990,199.003 158.760,199.804 161.400 C 202.014 168.681,202.131 168.952,203.316 169.522 C 205.306 170.480,205.787 169.857,223.014 144.000 C 232.176 130.250,239.953 118.685,240.297 118.300 C 241.170 117.325,277.977 117.209,278.782 118.178 C 279.172 118.649,278.607 119.692,275.731 123.805 C 271.747 129.503,265.265 138.789,264.008 140.600 C 263.550 141.260,262.365 142.970,261.375 144.400 C 260.385 145.830,257.815 149.520,255.664 152.600 C 251.028 159.236,241.141 173.442,237.430 178.800 C 235.983 180.890,234.110 183.590,233.269 184.800 C 232.427 186.010,230.493 188.808,228.970 191.018 C 226.242 194.977,222.173 200.818,218.147 206.557 C 215.514 210.311,215.595 210.045,213.783 220.800 C 213.506 222.450,212.894 225.870,212.424 228.400 C 211.955 230.930,211.404 234.080,211.200 235.400 C 210.996 236.720,210.448 239.870,209.982 242.400 C 209.517 244.930,208.889 248.440,208.589 250.200 C 208.288 251.960,207.778 254.840,207.455 256.600 C 207.132 258.360,206.593 261.395,206.258 263.343 C 205.922 265.292,205.531 267.002,205.390 267.143 C 204.755 267.779,168.101 267.644,167.460 267.003 C 166.789 266.332,166.865 263.862,167.662 260.400 C 167.889 259.410,168.328 257.070,168.635 255.200 C 168.943 253.330,169.475 250.270,169.818 248.400 C 170.161 246.530,170.688 243.560,170.989 241.800 C 171.289 240.040,171.917 236.530,172.382 234.000 C 172.848 231.470,173.397 228.320,173.601 227.000 C 173.805 225.680,174.343 222.620,174.797 220.200 C 176.946 208.731,177.467 212.120,170.398 191.600 C 168.844 187.090,166.782 181.060,165.816 178.200 C 164.849 175.340,162.863 169.580,161.402 165.400 C 159.941 161.220,158.590 157.260,158.399 156.600 C 158.075 155.478,153.859 143.246,151.160 135.600 C 150.500 133.730,149.708 131.390,149.400 130.400 C 149.092 129.410,148.077 126.410,147.143 123.734 C 145.711 119.627,145.528 118.768,145.972 118.234 C 146.760 117.284,185.212 117.269,186.161 118.218 " stroke="none" fill="#fbfbfb" fill-rule="evenodd"></path><path id="path2" d="M344.100 116.697 C 345.585 116.774,348.015 116.774,349.500 116.697 C 350.985 116.620,349.770 116.557,346.800 116.557 C 343.830 116.557,342.615 116.620,344.100 116.697 M341.300 149.076 C 341.685 149.176,342.315 149.176,342.700 149.076 C 343.085 148.975,342.770 148.893,342.000 148.893 C 341.230 148.893,340.915 148.975,341.300 149.076 M396.901 150.600 C 396.905 151.480,396.987 151.793,397.083 151.295 C 397.179 150.798,397.175 150.078,397.075 149.695 C 396.975 149.313,396.896 149.720,396.901 150.600 M396.901 160.200 C 396.905 161.080,396.987 161.393,397.083 160.895 C 397.179 160.398,397.175 159.678,397.075 159.295 C 396.975 158.913,396.896 159.320,396.901 160.200 M82.300 234.300 C 89.835 234.361,102.165 234.361,109.700 234.300 C 117.235 234.239,111.070 234.189,96.000 234.189 C 80.930 234.189,74.765 234.239,82.300 234.300 M324.700 237.482 C 325.195 237.578,326.005 237.578,326.500 237.482 C 326.995 237.387,326.590 237.309,325.600 237.309 C 324.610 237.309,324.205 237.387,324.700 237.482 M312.300 269.882 C 312.795 269.978,313.605 269.978,314.100 269.882 C 314.595 269.787,314.190 269.709,313.200 269.709 C 312.210 269.709,311.805 269.787,312.300 269.882 M326.300 269.882 C 326.795 269.978,327.605 269.978,328.100 269.882 C 328.595 269.787,328.190 269.709,327.200 269.709 C 326.210 269.709,325.805 269.787,326.300 269.882 " stroke="none" fill="#848484" fill-rule="evenodd"></path><path id="path3" d="M344.300 116.296 C 345.675 116.374,347.925 116.374,349.300 116.296 C 350.675 116.218,349.550 116.154,346.800 116.154 C 344.050 116.154,342.925 116.218,344.300 116.296 M336.512 116.695 C 337.564 116.777,339.184 116.776,340.112 116.692 C 341.040 116.608,340.180 116.541,338.200 116.542 C 336.220 116.543,335.460 116.612,336.512 116.695 M353.900 116.695 C 355.055 116.776,356.945 116.776,358.100 116.695 C 359.255 116.614,358.310 116.548,356.000 116.548 C 353.690 116.548,352.745 116.614,353.900 116.695 M331.400 117.200 C 330.381 117.638,331.432 117.638,332.800 117.200 C 333.604 116.943,333.643 116.877,333.000 116.868 C 332.560 116.862,331.840 117.011,331.400 117.200 M362.200 117.200 C 362.640 117.389,363.270 117.544,363.600 117.544 C 363.978 117.544,363.904 117.417,363.400 117.200 C 362.960 117.011,362.330 116.856,362.000 116.856 C 361.622 116.856,361.696 116.983,362.200 117.200 M49.680 118.080 C 49.416 118.344,49.213 118.839,49.228 119.180 C 49.248 119.608,49.353 119.553,49.568 119.000 C 49.872 118.220,50.349 118.195,68.240 117.994 L 86.600 117.788 68.380 117.694 C 54.636 117.623,50.042 117.718,49.680 118.080 M145.949 118.300 C 145.460 118.924,145.471 118.944,146.054 118.489 C 146.569 118.087,150.916 118.002,166.516 118.089 C 177.411 118.150,186.117 118.068,185.862 117.906 C 184.727 117.185,146.528 117.562,145.949 118.300 M240.300 118.300 C 239.399 119.312,222.226 145.100,222.865 144.483 C 223.159 144.198,227.276 138.168,232.014 131.083 L 240.628 118.200 258.814 117.994 L 277.000 117.788 258.962 117.694 C 242.218 117.607,240.879 117.650,240.300 118.300 M278.185 118.139 C 278.659 118.486,278.808 118.879,278.602 119.239 C 278.349 119.684,278.390 119.700,278.804 119.317 C 279.376 118.788,278.733 117.600,277.875 117.600 C 277.639 117.600,277.779 117.843,278.185 118.139 M327.000 118.000 C 325.930 118.272,325.908 118.305,326.800 118.305 C 327.350 118.305,328.340 118.168,329.000 118.000 C 330.070 117.728,330.092 117.695,329.200 117.695 C 328.650 117.695,327.660 117.832,327.000 118.000 M365.600 118.000 C 366.150 118.176,367.050 118.317,367.600 118.313 C 368.498 118.306,368.478 118.274,367.400 118.000 C 365.708 117.569,364.256 117.569,365.600 118.000 M145.630 119.215 C 145.613 119.334,145.954 120.414,146.386 121.615 C 146.818 122.817,147.164 123.440,147.156 123.000 C 147.142 122.277,145.700 118.702,145.630 119.215 M373.000 119.971 C 373.880 120.394,374.870 120.747,375.200 120.755 C 375.886 120.771,373.839 119.827,372.374 119.451 C 371.838 119.314,372.120 119.548,373.000 119.971 M277.523 120.700 C 276.600 121.776,274.338 125.200,274.550 125.200 C 274.653 125.200,275.556 124.030,276.556 122.600 C 278.339 120.049,278.714 119.312,277.523 120.700 M318.000 120.400 C 317.176 120.664,317.141 120.726,317.800 120.754 C 318.240 120.773,318.870 120.613,319.200 120.400 C 319.901 119.947,319.414 119.947,318.000 120.400 M378.400 122.364 C 378.950 122.814,379.580 123.183,379.800 123.185 C 380.228 123.188,379.505 122.634,378.200 121.960 C 377.669 121.685,377.736 121.821,378.400 122.364 M48.250 124.050 C 47.917 125.717,48.240 126.040,48.600 124.400 C 48.752 123.709,48.793 123.059,48.691 122.958 C 48.589 122.856,48.391 123.347,48.250 124.050 M380.400 123.324 C 380.400 123.417,381.165 123.998,382.100 124.615 C 383.035 125.232,383.589 125.480,383.331 125.168 C 382.834 124.567,380.400 123.036,380.400 123.324 M188.006 124.233 C 188.009 124.655,188.195 125.270,188.418 125.600 C 188.715 126.038,188.752 125.876,188.556 125.000 C 188.227 123.529,187.998 123.210,188.006 124.233 M86.501 126.200 C 86.505 127.080,86.587 127.393,86.683 126.895 C 86.779 126.398,86.775 125.678,86.675 125.295 C 86.575 124.913,86.496 125.320,86.501 126.200 M303.800 127.653 C 302.260 128.740,300.640 130.000,300.200 130.453 C 299.760 130.906,300.300 130.628,301.400 129.836 C 302.500 129.043,304.299 127.766,305.399 126.997 C 306.498 126.229,307.218 125.617,306.999 125.638 C 306.779 125.659,305.340 126.566,303.800 127.653 M385.600 127.140 C 386.590 128.038,388.011 129.453,388.759 130.286 C 390.075 131.753,390.086 131.757,389.125 130.423 C 388.580 129.666,387.158 128.250,385.967 127.278 C 383.906 125.596,383.888 125.589,385.600 127.140 M47.662 127.600 C 47.622 128.370,47.496 129.450,47.383 130.000 L 47.177 131.000 47.608 130.014 C 47.844 129.471,47.970 128.391,47.886 127.614 L 47.734 126.200 47.662 127.600 M272.892 127.300 C 271.917 128.499,267.153 135.741,267.695 135.200 C 268.402 134.494,273.673 126.800,273.450 126.800 C 273.366 126.800,273.115 127.025,272.892 127.300 M86.049 129.000 C 86.016 129.440,85.896 130.250,85.783 130.800 L 85.577 131.800 86.006 130.819 C 86.242 130.279,86.361 129.469,86.272 129.019 C 86.113 128.221,86.107 128.221,86.049 129.000 M149.744 131.400 C 150.161 133.041,151.166 135.376,151.182 134.744 C 151.192 134.383,150.827 133.303,150.371 132.344 C 149.914 131.385,149.633 130.960,149.744 131.400 M46.618 133.018 C 46.465 134.039,46.422 134.955,46.522 135.055 C 46.622 135.155,46.829 134.402,46.982 133.382 C 47.135 132.361,47.178 131.445,47.078 131.345 C 46.978 131.245,46.771 131.998,46.618 133.018 M296.745 133.500 C 295.774 134.545,294.099 136.570,293.022 138.000 C 291.945 139.430,290.892 140.825,290.683 141.100 C 290.473 141.375,290.392 141.600,290.503 141.600 C 290.613 141.600,291.736 140.227,293.000 138.549 C 294.263 136.871,296.141 134.621,297.174 133.549 C 298.208 132.477,298.931 131.600,298.781 131.600 C 298.632 131.600,297.715 132.455,296.745 133.500 M391.385 133.900 C 392.002 134.835,392.583 135.600,392.676 135.600 C 392.964 135.600,391.433 133.166,390.832 132.669 C 390.520 132.411,390.768 132.965,391.385 133.900 M191.029 134.000 C 191.176 134.550,191.464 135.270,191.667 135.600 C 191.925 136.017,191.957 135.895,191.771 135.200 C 191.624 134.650,191.336 133.930,191.133 133.600 C 190.875 133.183,190.843 133.305,191.029 134.000 M84.893 135.600 C 84.893 136.370,84.975 136.685,85.076 136.300 C 85.176 135.915,85.176 135.285,85.076 134.900 C 84.975 134.515,84.893 134.830,84.893 135.600 M266.328 136.700 C 265.348 137.851,263.162 141.271,263.566 141.021 C 263.934 140.794,267.242 136.000,267.032 136.000 C 266.972 136.000,266.656 136.315,266.328 136.700 M393.431 137.300 C 393.757 138.015,394.219 139.104,394.458 139.720 C 394.697 140.337,394.975 140.759,395.075 140.658 C 395.279 140.454,393.318 136.000,393.025 136.000 C 392.922 136.000,393.105 136.585,393.431 137.300 M46.046 137.267 C 46.021 137.634,45.896 138.264,45.770 138.667 C 45.552 139.362,45.563 139.363,45.997 138.687 C 46.248 138.296,46.373 137.666,46.273 137.287 C 46.111 136.668,46.088 136.666,46.046 137.267 M84.256 138.084 C 84.121 138.588,84.028 139.450,84.049 140.000 C 84.072 140.589,84.231 140.271,84.436 139.225 C 84.803 137.352,84.673 136.527,84.256 138.084 M192.856 139.600 C 192.856 139.930,193.011 140.560,193.200 141.000 C 193.417 141.504,193.544 141.578,193.544 141.200 C 193.544 140.870,193.389 140.240,193.200 139.800 C 192.983 139.296,192.856 139.222,192.856 139.600 M45.264 141.050 C 45.229 141.738,45.111 142.907,45.001 143.650 L 44.803 145.000 45.224 143.658 C 45.455 142.920,45.573 141.750,45.486 141.058 L 45.328 139.800 45.264 141.050 M261.785 143.300 C 261.168 144.235,260.920 144.789,261.232 144.531 C 261.833 144.034,263.364 141.600,263.076 141.600 C 262.983 141.600,262.402 142.365,261.785 143.300 M83.044 145.492 C 82.644 147.462,82.405 149.416,82.512 149.836 C 82.650 150.375,82.721 150.269,82.754 149.479 C 82.779 148.862,83.085 147.106,83.433 145.577 C 83.780 144.047,83.999 142.597,83.918 142.354 C 83.837 142.111,83.444 143.523,83.044 145.492 M288.679 144.300 C 286.965 147.160,286.320 148.400,286.548 148.400 C 286.644 148.400,287.307 147.365,288.020 146.100 C 288.733 144.835,289.581 143.395,289.904 142.900 C 290.227 142.405,290.394 142.000,290.275 142.000 C 290.156 142.000,289.438 143.035,288.679 144.300 M396.028 144.433 C 396.044 144.965,396.219 145.760,396.419 146.200 C 396.671 146.758,396.707 146.515,396.538 145.400 C 396.255 143.543,395.987 143.036,396.028 144.433 M194.406 145.033 C 194.409 145.455,194.595 146.070,194.818 146.400 C 195.115 146.838,195.152 146.676,194.956 145.800 C 194.627 144.329,194.398 144.010,194.406 145.033 M154.430 144.815 C 154.413 144.934,154.754 146.014,155.186 147.215 C 155.618 148.417,155.964 149.040,155.956 148.600 C 155.942 147.877,154.500 144.302,154.430 144.815 M44.250 146.450 C 43.917 148.117,44.240 148.440,44.600 146.800 C 44.752 146.109,44.793 145.459,44.691 145.358 C 44.589 145.256,44.391 145.747,44.250 146.450 M219.452 149.265 C 218.853 150.180,218.653 150.688,219.008 150.394 C 219.612 149.892,220.985 147.600,220.681 147.600 C 220.605 147.600,220.052 148.349,219.452 149.265 M258.321 148.300 C 257.404 149.363,254.207 154.287,254.879 153.600 C 255.625 152.838,259.294 147.600,259.082 147.600 C 258.995 147.600,258.652 147.915,258.321 148.300 M397.110 150.800 C 397.218 152.670,397.373 154.275,397.454 154.367 C 397.730 154.682,397.520 149.399,397.216 148.400 C 397.049 147.850,397.001 148.930,397.110 150.800 M339.233 149.347 C 339.325 149.428,341.020 149.581,343.000 149.688 C 344.980 149.794,346.150 149.746,345.600 149.580 C 344.597 149.279,338.920 149.071,339.233 149.347 M335.800 150.000 C 334.730 150.272,334.708 150.305,335.600 150.305 C 336.150 150.305,337.140 150.168,337.800 150.000 C 338.870 149.728,338.892 149.695,338.000 149.695 C 337.450 149.695,336.460 149.832,335.800 150.000 M43.649 150.600 C 43.616 151.040,43.496 151.850,43.383 152.400 L 43.177 153.400 43.606 152.419 C 43.842 151.879,43.961 151.069,43.872 150.619 C 43.713 149.821,43.707 149.821,43.649 150.600 M81.850 152.450 C 81.517 154.117,81.840 154.440,82.200 152.800 C 82.352 152.109,82.393 151.459,82.291 151.358 C 82.189 151.256,81.991 151.747,81.850 152.450 M217.104 152.844 C 216.501 153.700,216.087 154.400,216.183 154.400 C 216.469 154.400,218.526 151.592,218.356 151.433 C 218.270 151.354,217.707 151.988,217.104 152.844 M351.222 152.205 C 351.980 152.758,353.112 153.793,353.738 154.505 L 354.876 155.800 354.052 154.558 C 353.247 153.345,350.754 151.200,350.149 151.200 C 349.982 151.200,350.465 151.652,351.222 152.205 M157.048 152.700 C 157.192 153.305,157.567 154.250,157.881 154.800 C 158.234 155.419,158.349 155.496,158.182 155.000 C 158.034 154.560,157.744 153.615,157.538 152.900 C 157.082 151.322,156.679 151.158,157.048 152.700 M196.822 152.429 C 196.796 153.167,198.026 156.907,198.228 156.706 C 198.303 156.630,198.023 155.495,197.604 154.184 C 197.186 152.873,196.833 152.083,196.822 152.429 M42.893 154.800 C 42.893 155.570,42.975 155.885,43.076 155.500 C 43.176 155.115,43.176 154.485,43.076 154.100 C 42.975 153.715,42.893 154.030,42.893 154.800 M81.260 155.650 C 81.227 156.228,81.111 157.308,81.001 158.050 L 80.803 159.400 81.224 158.057 C 81.455 157.319,81.572 156.239,81.482 155.657 L 81.320 154.600 81.260 155.650 M213.855 157.600 C 212.831 159.140,212.078 160.400,212.182 160.400 C 212.285 160.400,213.066 159.365,213.915 158.100 C 215.798 155.299,216.095 154.800,215.882 154.800 C 215.792 154.800,214.880 156.060,213.855 157.600 M397.277 158.250 C 397.235 159.597,397.111 161.308,397.001 162.050 L 396.803 163.400 397.220 162.073 C 397.449 161.343,397.573 159.633,397.495 158.273 L 397.354 155.800 397.277 158.250 M158.544 157.000 C 158.961 158.641,159.966 160.976,159.982 160.344 C 159.992 159.983,159.627 158.903,159.171 157.944 C 158.714 156.985,158.433 156.560,158.544 157.000 M250.497 159.434 C 249.561 160.845,248.879 162.000,248.983 162.000 C 249.253 162.000,252.498 157.165,252.336 157.003 C 252.261 156.929,251.434 158.023,250.497 159.434 M41.829 160.229 C 41.681 160.815,41.638 161.372,41.732 161.466 C 41.827 161.560,42.024 161.158,42.171 160.571 C 42.319 159.985,42.362 159.428,42.268 159.334 C 42.173 159.240,41.976 159.642,41.829 160.229 M80.253 160.836 C 80.114 161.531,80.021 162.572,80.047 163.150 C 80.072 163.728,80.255 163.227,80.452 162.039 C 80.837 159.721,80.673 158.734,80.253 160.836 M282.046 160.067 C 282.021 160.434,281.896 161.064,281.770 161.467 C 281.552 162.162,281.563 162.163,281.997 161.487 C 282.248 161.096,282.373 160.466,282.273 160.087 C 282.111 159.468,282.088 159.466,282.046 160.067 M199.256 160.400 C 199.256 160.730,199.411 161.360,199.600 161.800 C 199.817 162.304,199.944 162.378,199.944 162.000 C 199.944 161.670,199.789 161.040,199.600 160.600 C 199.383 160.096,199.256 160.022,199.256 160.400 M356.493 161.200 C 356.493 161.970,356.575 162.285,356.676 161.900 C 356.776 161.515,356.776 160.885,356.676 160.500 C 356.575 160.115,356.493 160.430,356.493 161.200 M210.674 162.433 C 210.055 163.295,209.628 164.000,209.727 164.000 C 210.003 164.000,212.099 161.166,211.940 161.007 C 211.863 160.930,211.293 161.572,210.674 162.433 M281.040 164.040 C 280.893 164.957,280.852 165.785,280.947 165.880 C 281.042 165.976,281.246 165.310,281.400 164.400 C 281.554 163.490,281.596 162.662,281.493 162.560 C 281.390 162.457,281.187 163.123,281.040 164.040 M41.301 164.200 C 41.305 165.080,41.387 165.393,41.483 164.895 C 41.579 164.398,41.575 163.678,41.475 163.295 C 41.375 162.913,41.296 163.320,41.301 164.200 M357.254 165.200 C 357.219 165.750,357.096 166.650,356.983 167.200 L 356.777 168.200 357.207 167.215 C 357.443 166.674,357.565 165.774,357.478 165.215 L 357.320 164.200 357.254 165.200 M79.400 166.400 C 79.248 167.091,79.207 167.741,79.309 167.842 C 79.411 167.944,79.609 167.453,79.750 166.750 C 80.083 165.083,79.760 164.760,79.400 166.400 M200.806 165.833 C 200.809 166.255,200.995 166.870,201.218 167.200 C 201.515 167.638,201.552 167.476,201.356 166.600 C 201.027 165.129,200.798 164.810,200.806 165.833 M396.101 166.600 C 396.105 167.480,396.187 167.793,396.283 167.295 C 396.379 166.798,396.375 166.078,396.275 165.695 C 396.175 165.313,396.096 165.720,396.101 166.600 M245.529 166.700 C 244.578 167.818,243.128 170.000,243.335 170.000 C 243.440 170.000,244.172 169.100,244.962 168.000 C 246.385 166.019,246.677 165.350,245.529 166.700 M318.840 167.879 C 318.552 168.753,318.404 169.812,318.511 170.234 C 318.650 170.775,318.721 170.669,318.754 169.874 C 318.779 169.254,318.992 168.389,319.226 167.952 C 319.460 167.514,319.587 166.961,319.508 166.724 C 319.429 166.486,319.128 167.006,318.840 167.879 M280.229 167.829 C 280.081 168.415,280.038 168.972,280.132 169.066 C 280.227 169.160,280.424 168.758,280.571 168.171 C 280.719 167.585,280.762 167.028,280.668 166.934 C 280.573 166.840,280.376 167.242,280.229 167.829 M40.253 168.836 C 40.114 169.531,40.021 170.572,40.047 171.150 C 40.072 171.728,40.255 171.227,40.452 170.039 C 40.837 167.721,40.673 166.734,40.253 168.836 M201.612 168.126 C 201.580 168.978,202.519 169.997,203.314 169.975 L 204.200 169.949 203.334 169.600 C 202.858 169.408,202.278 168.925,202.046 168.526 C 201.814 168.126,201.619 167.947,201.612 168.126 M78.600 170.800 C 78.444 172.147,78.401 173.334,78.505 173.438 C 78.609 173.542,78.819 172.522,78.971 171.171 C 79.124 169.821,79.167 168.634,79.067 168.533 C 78.966 168.433,78.756 169.453,78.600 170.800 M356.528 170.800 C 356.528 172.230,356.601 172.815,356.689 172.100 C 356.778 171.385,356.778 170.215,356.689 169.500 C 356.601 168.785,356.528 169.370,356.528 170.800 M395.429 169.429 C 395.281 170.015,395.238 170.572,395.332 170.666 C 395.427 170.760,395.624 170.358,395.771 169.771 C 395.919 169.185,395.962 168.628,395.868 168.534 C 395.773 168.440,395.576 168.842,395.429 169.429 M279.662 171.200 C 279.622 171.970,279.496 173.050,279.383 173.600 L 279.177 174.600 279.608 173.614 C 279.844 173.071,279.970 171.991,279.886 171.214 L 279.734 169.800 279.662 171.200 M394.629 172.229 C 394.481 172.815,394.438 173.372,394.532 173.466 C 394.627 173.560,394.824 173.158,394.971 172.571 C 395.119 171.985,395.162 171.428,395.068 171.334 C 394.973 171.240,394.776 171.642,394.629 172.229 M317.873 172.553 C 317.723 172.945,317.611 173.566,317.625 173.933 C 317.642 174.375,317.781 174.274,318.037 173.634 C 318.249 173.103,318.361 172.482,318.285 172.254 C 318.209 172.027,318.024 172.161,317.873 172.553 M39.450 174.050 C 39.117 175.717,39.440 176.040,39.800 174.400 C 39.952 173.709,39.993 173.059,39.891 172.958 C 39.789 172.856,39.591 173.347,39.450 174.050 M77.856 174.884 C 77.721 175.388,77.627 176.160,77.646 176.600 C 77.665 177.040,77.845 176.698,78.046 175.840 C 78.436 174.178,78.270 173.340,77.856 174.884 M317.293 176.000 C 317.293 176.770,317.375 177.085,317.476 176.700 C 317.576 176.315,317.576 175.685,317.476 175.300 C 317.375 174.915,317.293 175.230,317.293 176.000 M239.090 175.709 C 238.975 176.008,237.758 177.859,236.384 179.822 C 235.011 181.785,234.143 183.180,234.455 182.921 C 235.312 182.209,239.728 175.594,239.499 175.365 C 239.389 175.255,239.205 175.410,239.090 175.709 M38.901 177.800 C 38.905 178.680,38.987 178.993,39.083 178.495 C 39.179 177.998,39.175 177.278,39.075 176.895 C 38.975 176.513,38.896 176.920,38.901 177.800 M278.493 178.000 C 278.493 178.770,278.575 179.085,278.676 178.700 C 278.776 178.315,278.776 177.685,278.676 177.300 C 278.575 176.915,278.493 177.230,278.493 178.000 M392.672 178.219 C 392.302 178.993,392.004 179.846,392.009 180.114 C 392.014 180.381,392.377 179.808,392.816 178.840 C 393.767 176.744,393.639 176.191,392.672 178.219 M165.844 178.200 C 166.173 179.671,166.402 179.990,166.394 178.967 C 166.391 178.545,166.205 177.930,165.982 177.600 C 165.685 177.162,165.648 177.324,165.844 178.200 M316.893 178.800 C 316.893 179.570,316.975 179.885,317.076 179.500 C 317.176 179.115,317.176 178.485,317.076 178.100 C 316.975 177.715,316.893 178.030,316.893 178.800 M76.640 182.063 C 76.248 183.934,76.009 185.900,76.109 186.432 C 76.259 187.230,76.301 187.176,76.346 186.125 C 76.375 185.423,76.678 183.649,77.019 182.181 C 77.359 180.714,77.574 179.321,77.496 179.087 C 77.418 178.853,77.033 180.192,76.640 182.063 M277.829 181.429 C 277.681 182.015,277.638 182.572,277.732 182.666 C 277.827 182.760,278.024 182.358,278.171 181.771 C 278.319 181.185,278.362 180.628,278.268 180.534 C 278.173 180.440,277.976 180.842,277.829 181.429 M316.256 181.284 C 316.121 181.788,316.028 182.650,316.049 183.200 C 316.072 183.789,316.231 183.471,316.436 182.425 C 316.803 180.552,316.673 179.727,316.256 181.284 M353.590 181.624 C 353.306 182.311,352.376 183.981,351.524 185.336 C 350.648 186.730,350.413 187.279,350.984 186.600 C 352.170 185.189,354.559 180.826,354.292 180.559 C 354.191 180.457,353.875 180.936,353.590 181.624 M37.856 182.484 C 37.721 182.988,37.627 183.760,37.646 184.200 C 37.665 184.640,37.845 184.298,38.046 183.440 C 38.436 181.778,38.270 180.940,37.856 182.484 M277.264 184.600 C 277.223 185.480,277.096 186.650,276.983 187.200 L 276.777 188.200 277.208 187.214 C 277.444 186.672,277.571 185.502,277.489 184.614 L 277.340 183.000 277.264 184.600 M231.944 186.300 C 230.793 187.689,230.306 188.400,230.504 188.400 C 230.614 188.400,231.186 187.770,231.773 187.000 C 232.863 185.571,232.995 185.032,231.944 186.300 M315.422 187.022 C 315.272 187.825,315.228 188.562,315.326 188.660 C 315.424 188.757,315.627 188.181,315.778 187.378 C 315.928 186.575,315.972 185.838,315.874 185.740 C 315.776 185.643,315.573 186.219,315.422 187.022 M37.249 187.000 C 37.216 187.440,37.096 188.250,36.983 188.800 L 36.777 189.800 37.206 188.819 C 37.442 188.279,37.561 187.469,37.472 187.019 C 37.313 186.221,37.307 186.221,37.249 187.000 M75.449 188.615 C 75.312 188.973,75.215 189.566,75.234 189.933 C 75.253 190.300,75.427 190.069,75.621 189.420 C 75.998 188.158,75.865 187.533,75.449 188.615 M359.900 188.300 C 365.015 188.363,373.385 188.363,378.500 188.300 C 383.615 188.236,379.430 188.185,369.200 188.185 C 358.970 188.185,354.785 188.236,359.900 188.300 M276.200 190.000 C 276.046 190.910,276.004 191.738,276.107 191.840 C 276.210 191.943,276.413 191.277,276.560 190.360 C 276.707 189.443,276.748 188.615,276.653 188.520 C 276.558 188.424,276.354 189.090,276.200 190.000 M169.641 189.200 C 169.645 189.894,171.144 193.601,171.177 193.000 C 171.189 192.780,170.848 191.700,170.418 190.600 C 169.989 189.500,169.639 188.870,169.641 189.200 M36.215 192.215 C 36.061 193.454,36.017 194.550,36.119 194.652 C 36.220 194.754,36.430 193.823,36.585 192.585 C 36.739 191.346,36.783 190.250,36.681 190.148 C 36.580 190.046,36.370 190.977,36.215 192.215 M314.501 192.200 C 314.505 193.080,314.587 193.393,314.683 192.895 C 314.779 192.398,314.775 191.678,314.675 191.295 C 314.575 190.913,314.496 191.320,314.501 192.200 M74.633 193.633 C 74.483 194.766,74.441 195.774,74.539 195.872 C 74.637 195.971,74.845 195.128,75.000 194.000 C 75.155 192.872,75.198 191.864,75.094 191.761 C 74.991 191.658,74.784 192.500,74.633 193.633 M275.660 194.067 C 275.627 194.654,275.496 195.464,275.370 195.867 C 275.152 196.560,275.165 196.561,275.595 195.890 C 275.846 195.499,275.977 194.689,275.886 194.090 L 275.720 193.000 275.660 194.067 M225.503 195.500 C 223.349 198.499,222.223 200.253,222.871 199.600 C 223.666 198.799,227.291 193.600,227.054 193.600 C 226.952 193.600,226.254 194.455,225.503 195.500 M313.856 195.284 C 313.721 195.788,313.627 196.560,313.646 197.000 C 313.665 197.440,313.845 197.098,314.046 196.240 C 314.436 194.578,314.270 193.740,313.856 195.284 M35.422 196.622 C 35.272 197.425,35.228 198.162,35.326 198.260 C 35.424 198.357,35.627 197.781,35.778 196.978 C 35.928 196.175,35.972 195.438,35.874 195.340 C 35.776 195.243,35.573 195.819,35.422 196.622 M73.856 197.284 C 73.721 197.788,73.630 198.740,73.653 199.400 C 73.681 200.228,73.797 199.984,74.026 198.613 C 74.376 196.523,74.274 195.726,73.856 197.284 M274.864 197.850 C 274.829 198.538,274.711 199.708,274.601 200.450 L 274.403 201.800 274.824 200.458 C 275.055 199.720,275.173 198.550,275.086 197.858 L 274.928 196.600 274.864 197.850 M312.836 201.441 C 312.526 202.958,312.228 205.010,312.172 206.000 C 312.117 206.990,312.150 207.260,312.245 206.600 C 312.341 205.940,312.701 204.199,313.045 202.731 C 313.389 201.264,313.610 199.752,313.535 199.372 C 313.461 198.993,313.146 199.923,312.836 201.441 M34.862 200.400 C 34.822 201.170,34.696 202.250,34.583 202.800 L 34.377 203.800 34.808 202.814 C 35.044 202.271,35.170 201.191,35.086 200.414 L 34.934 199.000 34.862 200.400 M173.630 200.815 C 173.613 200.934,173.954 202.014,174.386 203.215 C 174.818 204.417,175.164 205.040,175.156 204.600 C 175.142 203.877,173.700 200.302,173.630 200.815 M73.050 202.850 C 72.909 203.553,72.869 204.202,72.959 204.292 C 73.050 204.383,73.248 203.891,73.400 203.200 C 73.552 202.509,73.593 201.859,73.491 201.758 C 73.389 201.656,73.191 202.147,73.050 202.850 M220.719 202.300 C 219.785 203.381,215.817 209.479,216.490 208.800 C 217.167 208.117,221.664 201.600,221.458 201.600 C 221.384 201.600,221.052 201.915,220.719 202.300 M273.800 203.600 C 273.648 204.291,273.607 204.941,273.709 205.042 C 273.811 205.144,274.009 204.653,274.150 203.950 C 274.483 202.283,274.160 201.960,273.800 203.600 M33.869 205.156 C 33.721 205.895,33.620 206.882,33.644 207.350 C 33.668 207.818,33.847 207.390,34.042 206.400 C 34.237 205.410,34.338 204.423,34.267 204.206 C 34.196 203.990,34.017 204.417,33.869 205.156 M273.293 207.600 C 273.293 208.370,273.375 208.685,273.476 208.300 C 273.576 207.915,273.576 207.285,273.476 206.900 C 273.375 206.515,273.293 206.830,273.293 207.600 M176.501 210.200 C 176.505 211.080,176.587 211.393,176.683 210.895 C 176.779 210.398,176.775 209.678,176.675 209.295 C 176.575 208.913,176.496 209.320,176.501 210.200 M311.429 209.829 C 311.281 210.415,311.238 210.972,311.332 211.066 C 311.427 211.160,311.624 210.758,311.771 210.171 C 311.919 209.585,311.962 209.028,311.868 208.934 C 311.773 208.840,311.576 209.242,311.429 209.829 M33.050 210.450 C 32.717 212.117,33.040 212.440,33.400 210.800 C 33.552 210.109,33.593 209.459,33.491 209.358 C 33.389 209.256,33.191 209.747,33.050 210.450 M272.656 210.084 C 272.521 210.588,272.427 211.360,272.446 211.800 C 272.465 212.240,272.645 211.898,272.846 211.040 C 273.236 209.378,273.070 208.540,272.656 210.084 M176.093 213.200 C 176.093 213.970,176.175 214.285,176.276 213.900 C 176.376 213.515,176.376 212.885,176.276 212.500 C 176.175 212.115,176.093 212.430,176.093 213.200 M214.633 214.033 C 214.483 215.166,214.441 216.174,214.539 216.272 C 214.637 216.371,214.845 215.528,215.000 214.400 C 215.155 213.272,215.198 212.264,215.094 212.161 C 214.991 212.058,214.784 212.900,214.633 214.033 M310.600 214.000 C 310.445 215.128,310.402 216.136,310.506 216.239 C 310.609 216.342,310.816 215.500,310.967 214.367 C 311.117 213.234,311.159 212.226,311.061 212.128 C 310.963 212.029,310.755 212.872,310.600 214.000 M32.464 213.800 C 32.423 214.680,32.296 215.850,32.183 216.400 L 31.977 217.400 32.408 216.414 C 32.644 215.872,32.771 214.702,32.689 213.814 L 32.540 212.200 32.464 213.800 M272.093 214.000 C 272.093 214.770,272.175 215.085,272.276 214.700 C 272.376 214.315,272.376 213.685,272.276 213.300 C 272.175 212.915,272.093 213.230,272.093 214.000 M358.300 215.100 C 363.415 215.163,371.785 215.163,376.900 215.100 C 382.015 215.036,377.830 214.985,367.600 214.985 C 357.370 214.985,353.185 215.036,358.300 215.100 M70.482 217.175 C 70.217 218.322,70.015 219.562,70.033 219.931 C 70.052 220.299,70.325 219.531,70.641 218.224 C 70.957 216.917,71.159 215.677,71.089 215.468 C 71.020 215.260,70.746 216.028,70.482 217.175 M175.429 216.229 C 175.281 216.815,175.238 217.372,175.332 217.466 C 175.427 217.560,175.624 217.158,175.771 216.571 C 175.919 215.985,175.962 215.428,175.868 215.334 C 175.773 215.240,175.576 215.642,175.429 216.229 M386.400 216.376 C 386.400 217.049,386.469 217.600,386.553 217.600 C 386.893 217.600,387.069 215.566,386.746 215.367 C 386.556 215.249,386.400 215.703,386.400 216.376 M271.450 217.250 C 271.309 217.953,271.269 218.602,271.359 218.692 C 271.450 218.783,271.648 218.291,271.800 217.600 C 271.952 216.909,271.993 216.259,271.891 216.158 C 271.789 216.056,271.591 216.547,271.450 217.250 M213.856 217.684 C 213.721 218.188,213.630 219.140,213.653 219.800 C 213.681 220.628,213.797 220.384,214.026 219.013 C 214.376 216.923,214.274 216.126,213.856 217.684 M309.859 219.860 C 309.541 223.613,309.567 226.381,309.928 227.270 C 310.078 227.638,310.230 225.433,310.266 222.370 C 310.340 216.073,310.234 215.419,309.859 219.860 M347.422 218.622 C 347.272 219.425,347.228 220.162,347.326 220.260 C 347.424 220.357,347.627 219.781,347.778 218.978 C 347.928 218.175,347.972 217.438,347.874 217.340 C 347.776 217.243,347.573 217.819,347.422 218.622 M31.400 219.200 C 31.246 220.110,31.204 220.938,31.307 221.040 C 31.410 221.143,31.613 220.477,31.760 219.560 C 31.907 218.643,31.948 217.815,31.853 217.720 C 31.758 217.624,31.554 218.290,31.400 219.200 M386.093 219.600 C 386.093 220.370,386.175 220.685,386.276 220.300 C 386.376 219.915,386.376 219.285,386.276 218.900 C 386.175 218.515,386.093 218.830,386.093 219.600 M174.860 219.650 C 174.827 220.228,174.711 221.308,174.601 222.050 L 174.403 223.400 174.824 222.057 C 175.055 221.319,175.172 220.239,175.082 219.657 L 174.920 218.600 174.860 219.650 M270.662 222.893 C 270.521 224.712,270.433 228.900,270.467 232.200 C 270.524 237.771,270.550 237.543,270.824 229.000 C 271.136 219.288,271.087 217.434,270.662 222.893 M69.693 222.000 C 69.693 222.770,69.775 223.085,69.876 222.700 C 69.976 222.315,69.976 221.685,69.876 221.300 C 69.775 220.915,69.693 221.230,69.693 222.000 M213.050 223.250 C 212.909 223.953,212.869 224.602,212.959 224.692 C 213.050 224.783,213.248 224.291,213.400 223.600 C 213.552 222.909,213.593 222.259,213.491 222.158 C 213.389 222.056,213.191 222.547,213.050 223.250 M30.860 223.267 C 30.827 223.854,30.696 224.664,30.570 225.067 C 30.352 225.760,30.365 225.761,30.795 225.090 C 31.046 224.699,31.177 223.889,31.086 223.290 L 30.920 222.200 30.860 223.267 M173.869 224.756 C 173.721 225.495,173.620 226.482,173.644 226.950 C 173.668 227.418,173.847 226.990,174.042 226.000 C 174.237 225.010,174.338 224.023,174.267 223.806 C 174.196 223.590,174.017 224.017,173.869 224.756 M385.000 224.800 C 384.848 225.491,384.807 226.141,384.909 226.242 C 385.011 226.344,385.209 225.853,385.350 225.150 C 385.491 224.447,385.531 223.798,385.441 223.708 C 385.350 223.617,385.152 224.109,385.000 224.800 M69.029 225.429 C 68.881 226.015,68.838 226.572,68.932 226.666 C 69.027 226.760,69.224 226.358,69.371 225.771 C 69.519 225.185,69.562 224.628,69.468 224.534 C 69.373 224.440,69.176 224.842,69.029 225.429 M30.064 227.050 C 30.029 227.738,29.911 228.907,29.801 229.650 L 29.603 231.000 30.024 229.658 C 30.255 228.920,30.373 227.750,30.286 227.058 L 30.128 225.800 30.064 227.050 M212.093 228.800 C 212.093 229.570,212.175 229.885,212.276 229.500 C 212.376 229.115,212.376 228.485,212.276 228.100 C 212.175 227.715,212.093 228.030,212.093 228.800 M383.886 229.694 C 383.509 230.891,383.210 232.124,383.222 232.435 C 383.233 232.746,383.591 231.920,384.015 230.600 C 384.440 229.280,384.739 228.046,384.680 227.858 C 384.621 227.671,384.264 228.496,383.886 229.694 M68.218 230.218 C 68.065 231.239,68.022 232.155,68.122 232.255 C 68.222 232.355,68.429 231.602,68.582 230.582 C 68.735 229.561,68.778 228.645,68.678 228.545 C 68.578 228.445,68.371 229.198,68.218 230.218 M173.050 230.050 C 172.717 231.717,173.040 232.040,173.400 230.400 C 173.552 229.709,173.593 229.059,173.491 228.958 C 173.389 228.856,173.191 229.347,173.050 230.050 M310.800 229.862 C 310.800 231.037,314.741 235.200,315.855 235.200 C 316.037 235.200,315.500 234.734,314.661 234.164 C 313.823 233.594,312.611 232.299,311.968 231.286 C 311.326 230.272,310.800 229.632,310.800 229.862 M341.362 230.849 C 340.558 231.744,336.620 234.518,335.600 234.908 C 335.191 235.064,335.166 235.147,335.522 235.168 C 336.194 235.209,340.308 232.403,341.570 231.045 C 342.103 230.470,342.446 230.000,342.332 230.000 C 342.217 230.000,341.781 230.382,341.362 230.849 M211.400 232.000 C 211.248 232.691,211.207 233.341,211.309 233.442 C 211.411 233.544,211.609 233.053,211.750 232.350 C 211.891 231.647,211.931 230.998,211.841 230.908 C 211.750 230.817,211.552 231.309,211.400 232.000 M29.000 232.800 C 28.848 233.491,28.807 234.141,28.909 234.242 C 29.011 234.344,29.209 233.853,29.350 233.150 C 29.683 231.483,29.360 231.160,29.000 232.800 M172.493 233.600 C 172.493 234.370,172.575 234.685,172.676 234.300 C 172.776 233.915,172.776 233.285,172.676 232.900 C 172.575 232.515,172.493 232.830,172.493 233.600 M82.929 233.900 C 90.370 233.961,102.430 233.961,109.729 233.900 C 117.028 233.839,110.940 233.789,96.200 233.789 C 81.460 233.789,75.488 233.839,82.929 233.900 M123.713 234.439 C 124.262 234.759,124.379 235.194,124.223 236.327 L 124.020 237.800 124.461 236.255 C 124.902 234.706,124.567 234.001,123.400 234.018 C 123.180 234.022,123.321 234.211,123.713 234.439 M210.640 236.840 C 210.493 237.757,210.452 238.585,210.547 238.680 C 210.642 238.776,210.846 238.110,211.000 237.200 C 211.154 236.290,211.196 235.462,211.093 235.360 C 210.990 235.257,210.787 235.923,210.640 236.840 M333.446 235.662 C 333.031 235.903,331.771 236.236,330.646 236.400 C 328.682 236.688,328.664 236.702,330.200 236.740 C 331.528 236.772,335.840 235.307,334.600 235.245 C 334.380 235.233,333.861 235.421,333.446 235.662 M381.472 236.619 C 381.102 237.393,380.804 238.246,380.809 238.514 C 380.814 238.781,381.177 238.208,381.616 237.240 C 382.567 235.144,382.439 234.591,381.472 236.619 M28.459 236.600 C 28.420 237.260,28.296 238.250,28.183 238.800 L 27.977 239.800 28.408 238.814 C 28.644 238.272,28.768 237.282,28.683 236.614 L 28.528 235.400 28.459 236.600 M318.600 236.397 C 319.364 236.728,322.314 236.955,321.967 236.656 C 321.875 236.577,320.900 236.409,319.800 236.282 C 318.513 236.133,318.085 236.174,318.600 236.397 M324.100 237.091 C 324.925 237.178,326.275 237.178,327.100 237.091 C 327.925 237.005,327.250 236.934,325.600 236.934 C 323.950 236.934,323.275 237.005,324.100 237.091 M171.400 238.800 C 171.248 239.491,171.207 240.141,171.309 240.242 C 171.411 240.344,171.609 239.853,171.750 239.150 C 172.083 237.483,171.760 237.160,171.400 238.800 M123.453 239.236 C 123.314 239.931,123.221 240.972,123.247 241.550 C 123.272 242.128,123.455 241.627,123.652 240.439 C 124.037 238.121,123.873 237.134,123.453 239.236 M270.909 240.000 C 270.909 240.990,270.987 241.395,271.082 240.900 C 271.178 240.405,271.178 239.595,271.082 239.100 C 270.987 238.605,270.909 239.010,270.909 240.000 M209.853 240.436 C 209.714 241.131,209.621 242.173,209.647 242.750 C 209.672 243.328,209.855 242.827,210.052 241.639 C 210.437 239.321,210.273 238.334,209.853 240.436 M27.400 242.000 C 27.245 243.128,27.202 244.136,27.306 244.239 C 27.409 244.342,27.616 243.500,27.767 242.367 C 27.917 241.234,27.959 240.226,27.861 240.128 C 27.763 240.029,27.555 240.872,27.400 242.000 M379.000 242.000 C 378.659 242.660,378.469 243.200,378.579 243.200 C 378.689 243.200,379.059 242.660,379.400 242.000 C 379.741 241.340,379.931 240.800,379.821 240.800 C 379.711 240.800,379.341 241.340,379.000 242.000 M170.854 242.800 C 170.819 243.350,170.696 244.250,170.583 244.800 L 170.377 245.800 170.807 244.815 C 171.043 244.274,171.165 243.374,171.078 242.815 L 170.920 241.800 170.854 242.800 M271.256 242.800 C 271.256 243.130,271.411 243.760,271.600 244.200 C 271.817 244.704,271.944 244.778,271.944 244.400 C 271.944 244.070,271.789 243.440,271.600 243.000 C 271.383 242.496,271.256 242.422,271.256 242.800 M122.649 244.215 C 122.512 244.573,122.415 245.166,122.434 245.533 C 122.453 245.900,122.627 245.669,122.821 245.020 C 123.198 243.758,123.065 243.133,122.649 244.215 M376.985 245.300 C 376.368 246.235,376.120 246.789,376.432 246.531 C 377.033 246.034,378.564 243.600,378.276 243.600 C 378.183 243.600,377.602 244.365,376.985 245.300 M209.050 245.650 C 208.909 246.353,208.869 247.002,208.959 247.092 C 209.050 247.183,209.248 246.691,209.400 246.000 C 209.552 245.309,209.593 244.659,209.491 244.558 C 209.389 244.456,209.191 244.947,209.050 245.650 M26.629 246.629 C 26.481 247.215,26.438 247.772,26.532 247.866 C 26.627 247.960,26.824 247.558,26.971 246.971 C 27.119 246.385,27.162 245.828,27.068 245.734 C 26.973 245.640,26.776 246.042,26.629 246.629 M121.833 248.833 C 121.683 249.966,121.641 250.974,121.739 251.072 C 121.837 251.171,122.045 250.328,122.200 249.200 C 122.355 248.072,122.398 247.064,122.294 246.961 C 122.191 246.858,121.984 247.700,121.833 248.833 M169.693 249.600 C 169.693 250.370,169.775 250.685,169.876 250.300 C 169.976 249.915,169.976 249.285,169.876 248.900 C 169.775 248.515,169.693 248.830,169.693 249.600 M26.064 249.850 C 26.029 250.538,25.911 251.707,25.801 252.450 L 25.603 253.800 26.024 252.458 C 26.255 251.720,26.373 250.550,26.286 249.858 L 26.128 248.600 26.064 249.850 M373.600 249.969 C 373.600 250.172,371.935 252.007,369.900 254.048 C 367.840 256.114,367.032 257.090,368.077 256.250 C 370.299 254.464,374.656 249.600,374.034 249.600 C 373.795 249.600,373.600 249.766,373.600 249.969 M273.600 250.155 C 273.600 250.753,276.125 255.033,276.930 255.800 L 277.770 256.600 277.136 255.800 C 276.788 255.360,275.915 253.920,275.197 252.600 C 273.780 249.994,273.600 249.719,273.600 250.155 M207.697 253.040 C 207.424 254.364,207.214 255.797,207.232 256.224 C 207.249 256.651,207.521 255.830,207.834 254.400 C 208.148 252.970,208.358 251.537,208.300 251.215 C 208.242 250.894,207.971 251.715,207.697 253.040 M169.000 252.400 C 168.848 253.091,168.807 253.741,168.909 253.842 C 169.011 253.944,169.209 253.453,169.350 252.750 C 169.683 251.083,169.360 250.760,169.000 252.400 M120.893 254.400 C 120.893 255.170,120.975 255.485,121.076 255.100 C 121.176 254.715,121.176 254.085,121.076 253.700 C 120.975 253.315,120.893 253.630,120.893 254.400 M25.000 255.600 C 24.846 256.510,24.804 257.338,24.907 257.440 C 25.010 257.543,25.213 256.877,25.360 255.960 C 25.507 255.043,25.548 254.215,25.453 254.120 C 25.358 254.024,25.154 254.690,25.000 255.600 M168.450 256.200 C 168.417 256.860,168.125 258.390,167.800 259.600 C 167.475 260.810,167.232 262.340,167.259 263.000 C 167.303 264.054,167.328 264.078,167.466 263.200 C 167.553 262.650,167.903 261.003,168.245 259.541 C 168.587 258.078,168.786 256.458,168.688 255.941 C 168.537 255.148,168.500 255.189,168.450 256.200 M120.200 258.000 C 120.048 258.691,120.014 259.347,120.124 259.457 C 120.234 259.567,120.448 259.091,120.600 258.400 C 120.752 257.709,120.786 257.053,120.676 256.943 C 120.566 256.833,120.352 257.309,120.200 258.000 M279.000 258.400 C 279.859 259.280,280.652 260.000,280.762 260.000 C 280.872 260.000,280.259 259.280,279.400 258.400 C 278.541 257.520,277.748 256.800,277.638 256.800 C 277.528 256.800,278.141 257.520,279.000 258.400 M206.629 259.429 C 206.481 260.015,206.438 260.572,206.532 260.666 C 206.627 260.760,206.824 260.358,206.971 259.771 C 207.119 259.185,207.162 258.628,207.068 258.534 C 206.973 258.440,206.776 258.842,206.629 259.429 M24.250 260.450 C 23.917 262.117,24.240 262.440,24.600 260.800 C 24.752 260.109,24.793 259.459,24.691 259.358 C 24.589 259.256,24.391 259.747,24.250 260.450 M119.385 262.185 C 119.230 263.423,119.190 264.523,119.295 264.629 C 119.401 264.734,119.607 263.801,119.754 262.554 C 119.900 261.307,119.941 260.207,119.843 260.110 C 119.746 260.012,119.539 260.946,119.385 262.185 M282.000 260.989 C 282.000 261.359,287.638 264.895,287.866 264.667 C 287.981 264.553,287.473 264.150,286.737 263.773 C 286.002 263.396,284.635 262.564,283.700 261.925 C 282.765 261.285,282.000 260.864,282.000 260.989 M359.600 261.636 C 358.936 262.179,358.869 262.315,359.400 262.040 C 360.705 261.366,361.428 260.812,361.000 260.815 C 360.780 260.817,360.150 261.186,359.600 261.636 M205.800 263.600 C 205.645 264.728,205.602 265.736,205.706 265.839 C 205.809 265.942,206.016 265.100,206.167 263.967 C 206.317 262.834,206.359 261.826,206.261 261.728 C 206.163 261.629,205.955 262.472,205.800 263.600 M23.701 263.800 C 23.705 264.680,23.787 264.993,23.883 264.495 C 23.979 263.998,23.975 263.278,23.875 262.895 C 23.775 262.513,23.696 262.920,23.701 263.800 M354.800 264.000 C 354.030 264.422,353.580 264.766,353.800 264.766 C 354.020 264.766,354.830 264.422,355.600 264.000 C 356.370 263.578,356.820 263.234,356.600 263.234 C 356.380 263.234,355.570 263.578,354.800 264.000 M47.700 267.500 C 60.625 267.558,81.775 267.558,94.700 267.500 C 107.625 267.441,97.050 267.393,71.200 267.393 C 45.350 267.393,34.775 267.441,47.700 267.500 M177.127 267.500 C 182.258 267.563,190.538 267.563,195.527 267.500 C 200.517 267.436,196.320 267.384,186.200 267.384 C 176.080 267.384,171.997 267.436,177.127 267.500 M294.433 267.343 C 294.525 267.421,295.230 267.601,296.000 267.742 C 296.985 267.923,297.222 267.882,296.800 267.606 C 296.258 267.250,294.037 267.003,294.433 267.343 M343.945 267.388 C 343.842 267.492,342.777 267.840,341.579 268.162 C 340.380 268.484,339.793 268.759,340.274 268.774 C 340.755 268.788,341.655 268.605,342.274 268.367 C 342.893 268.128,344.120 267.788,345.000 267.611 C 346.465 267.315,346.496 267.284,345.367 267.244 C 344.688 267.220,344.049 267.285,343.945 267.388 M302.600 269.200 C 304.292 269.631,305.744 269.631,304.400 269.200 C 303.850 269.024,302.950 268.883,302.400 268.887 C 301.502 268.894,301.522 268.926,302.600 269.200 M335.400 269.219 C 334.842 269.471,335.085 269.507,336.200 269.338 C 337.080 269.204,337.875 269.028,337.967 268.947 C 338.310 268.644,336.168 268.871,335.400 269.219 M307.111 269.893 C 308.051 269.978,309.491 269.977,310.311 269.891 C 311.130 269.805,310.360 269.736,308.600 269.737 C 306.840 269.739,306.170 269.809,307.111 269.893 M329.891 269.889 C 330.601 269.977,331.861 269.979,332.691 269.892 C 333.521 269.805,332.940 269.733,331.400 269.731 C 329.860 269.729,329.181 269.800,329.891 269.889 M316.122 270.299 C 318.499 270.370,322.279 270.369,324.522 270.298 C 326.765 270.227,324.820 270.169,320.200 270.169 C 315.580 270.170,313.745 270.228,316.122 270.299 " stroke="none" fill="#a3a3a3" fill-rule="evenodd"></path><path id="path4" d="M333.400 117.176 C 332.946 117.357,333.899 117.417,335.600 117.315 C 339.507 117.082,340.081 116.864,336.800 116.860 C 335.370 116.858,333.840 117.000,333.400 117.176 M356.033 116.945 C 356.125 117.025,357.640 117.182,359.400 117.293 C 361.160 117.405,362.150 117.357,361.600 117.188 C 360.605 116.881,355.716 116.668,356.033 116.945 M329.600 118.000 C 328.243 118.286,328.237 118.295,329.400 118.307 C 330.060 118.315,331.050 118.176,331.600 118.000 C 332.912 117.580,331.596 117.580,329.600 118.000 M363.400 117.981 C 364.168 118.329,366.310 118.556,365.967 118.253 C 365.875 118.172,365.080 117.996,364.200 117.862 C 363.085 117.693,362.842 117.729,363.400 117.981 M68.774 118.298 L 87.148 118.408 87.312 119.304 C 87.454 120.076,87.472 120.062,87.439 119.200 L 87.400 118.200 68.900 118.194 L 50.400 118.188 68.774 118.298 M156.300 118.300 C 161.635 118.363,170.365 118.363,175.700 118.300 C 181.035 118.237,176.670 118.185,166.000 118.185 C 155.330 118.185,150.965 118.237,156.300 118.300 M247.600 118.288 C 264.489 118.567,278.400 118.573,278.400 118.300 C 278.400 118.135,269.985 118.040,259.700 118.090 C 249.415 118.139,243.970 118.228,247.600 118.288 M146.032 119.000 C 146.030 119.440,146.286 120.250,146.600 120.800 C 147.330 122.078,147.334 121.804,146.612 119.800 C 146.295 118.920,146.034 118.560,146.032 119.000 M277.704 119.700 C 276.448 121.293,274.398 124.448,274.768 124.220 C 275.243 123.926,278.535 119.200,278.264 119.200 C 278.173 119.200,277.921 119.425,277.704 119.700 M321.800 119.619 C 321.242 119.871,321.485 119.907,322.600 119.738 C 323.480 119.604,324.275 119.428,324.367 119.347 C 324.710 119.044,322.568 119.271,321.800 119.619 M371.596 119.984 C 372.803 120.401,373.846 120.687,373.912 120.621 C 374.119 120.414,370.822 119.199,370.092 119.213 C 369.711 119.220,370.388 119.567,371.596 119.984 M186.419 120.215 C 186.408 120.444,186.754 121.614,187.186 122.815 C 187.618 124.017,187.977 124.730,187.985 124.400 C 188.001 123.722,186.448 119.572,186.419 120.215 M49.040 122.440 C 48.893 123.357,48.852 124.185,48.947 124.280 C 49.042 124.376,49.246 123.710,49.400 122.800 C 49.554 121.890,49.596 121.062,49.493 120.960 C 49.390 120.857,49.187 121.523,49.040 122.440 M315.800 121.629 C 314.920 122.052,314.650 122.286,315.200 122.149 C 316.333 121.867,318.412 120.825,317.800 120.846 C 317.580 120.853,316.680 121.206,315.800 121.629 M86.650 122.850 C 86.317 124.517,86.640 124.840,87.000 123.200 C 87.152 122.509,87.193 121.859,87.091 121.758 C 86.989 121.656,86.791 122.147,86.650 122.850 M376.433 121.749 C 376.845 122.117,379.200 123.200,379.200 123.021 C 379.200 122.790,376.982 121.600,376.553 121.600 C 376.396 121.600,376.342 121.667,376.433 121.749 M379.610 123.326 C 380.209 123.974,382.895 125.597,382.418 125.022 C 382.110 124.651,381.305 124.066,380.629 123.723 C 379.953 123.379,379.495 123.201,379.610 123.326 M48.256 125.684 C 48.121 126.188,48.030 127.140,48.053 127.800 C 48.081 128.628,48.197 128.384,48.426 127.013 C 48.776 124.923,48.674 124.126,48.256 125.684 M86.064 125.850 C 86.029 126.538,85.911 127.708,85.801 128.450 L 85.603 129.800 86.024 128.458 C 86.255 127.720,86.373 126.550,86.286 125.858 L 86.128 124.600 86.064 125.850 M234.585 127.300 C 233.968 128.235,233.720 128.789,234.032 128.531 C 234.633 128.034,236.164 125.600,235.876 125.600 C 235.783 125.600,235.202 126.365,234.585 127.300 M306.400 126.436 C 305.736 126.979,305.669 127.115,306.200 126.840 C 307.505 126.166,308.228 125.612,307.800 125.615 C 307.580 125.617,306.950 125.986,306.400 126.436 M383.400 125.841 C 385.925 128.383,389.494 131.475,388.201 130.000 C 387.333 129.010,386.167 127.836,385.611 127.391 C 384.169 126.236,382.929 125.368,383.400 125.841 M302.400 129.170 C 300.970 130.246,299.260 131.610,298.600 132.200 L 297.400 133.273 298.600 132.418 C 303.097 129.216,305.644 127.173,305.100 127.206 C 305.045 127.209,303.830 128.093,302.400 129.170 M188.856 128.000 C 188.856 128.330,189.011 128.960,189.200 129.400 C 189.417 129.904,189.544 129.978,189.544 129.600 C 189.544 129.270,189.389 128.640,189.200 128.200 C 188.983 127.696,188.856 127.622,188.856 128.000 M149.656 129.600 C 149.656 129.930,149.811 130.560,150.000 131.000 C 150.217 131.504,150.344 131.578,150.344 131.200 C 150.344 130.870,150.189 130.240,150.000 129.800 C 149.783 129.296,149.656 129.222,149.656 129.600 M47.400 131.200 C 47.248 131.891,47.214 132.547,47.324 132.657 C 47.434 132.767,47.648 132.291,47.800 131.600 C 47.952 130.909,47.986 130.253,47.876 130.143 C 47.766 130.033,47.552 130.509,47.400 131.200 M85.000 131.600 C 84.848 132.291,84.807 132.941,84.909 133.042 C 85.011 133.144,85.209 132.653,85.350 131.950 C 85.683 130.283,85.360 129.960,85.000 131.600 M268.975 132.268 C 268.359 133.076,268.059 133.611,268.309 133.456 C 268.821 133.140,270.553 130.800,270.275 130.800 C 270.176 130.800,269.591 131.461,268.975 132.268 M390.340 133.116 C 390.833 133.809,391.444 134.504,391.697 134.660 C 391.950 134.817,391.754 134.377,391.260 133.684 C 390.767 132.991,390.156 132.296,389.903 132.140 C 389.650 131.983,389.846 132.423,390.340 133.116 M46.455 136.400 C 46.166 138.050,45.864 140.030,45.783 140.800 L 45.637 142.200 45.976 140.800 C 46.750 137.606,47.241 134.710,47.115 134.076 C 47.041 133.704,46.744 134.750,46.455 136.400 M295.568 135.500 C 293.209 138.143,292.674 138.800,292.882 138.800 C 293.003 138.800,293.949 137.810,294.982 136.600 C 296.896 134.360,297.355 133.498,295.568 135.500 M84.229 136.629 C 84.081 137.215,84.038 137.772,84.132 137.866 C 84.227 137.960,84.424 137.558,84.571 136.971 C 84.719 136.385,84.762 135.828,84.668 135.734 C 84.573 135.640,84.376 136.042,84.229 136.629 M191.444 136.600 C 191.773 138.071,192.002 138.390,191.994 137.367 C 191.991 136.945,191.805 136.330,191.582 136.000 C 191.285 135.562,191.248 135.724,191.444 136.600 M263.387 140.282 C 262.356 141.758,261.415 143.243,261.297 143.582 C 261.179 143.922,261.583 143.480,262.194 142.600 C 265.002 138.558,265.626 137.600,265.450 137.600 C 265.347 137.600,264.418 138.807,263.387 140.282 M83.415 141.015 C 83.261 142.254,83.217 143.350,83.319 143.452 C 83.420 143.554,83.630 142.623,83.785 141.385 C 83.939 140.146,83.983 139.050,83.881 138.948 C 83.780 138.846,83.570 139.777,83.415 141.015 M394.462 140.400 C 394.462 140.730,394.794 141.900,395.200 143.000 C 395.606 144.100,395.938 144.730,395.938 144.400 C 395.938 144.070,395.606 142.900,395.200 141.800 C 394.794 140.700,394.462 140.070,394.462 140.400 M153.645 141.600 C 153.653 141.930,154.006 142.920,154.429 143.800 C 154.852 144.680,155.086 144.962,154.949 144.426 C 154.573 142.961,153.629 140.914,153.645 141.600 M193.844 144.200 C 194.173 145.671,194.402 145.990,194.394 144.967 C 194.391 144.545,194.205 143.930,193.982 143.600 C 193.685 143.162,193.648 143.324,193.844 144.200 M45.022 145.022 C 44.872 145.825,44.828 146.562,44.926 146.660 C 45.024 146.757,45.227 146.181,45.378 145.378 C 45.528 144.575,45.572 143.838,45.474 143.740 C 45.376 143.643,45.173 144.219,45.022 145.022 M288.614 145.035 C 288.241 145.604,288.005 146.138,288.089 146.222 C 288.173 146.307,288.558 145.841,288.944 145.188 C 289.806 143.728,289.548 143.609,288.614 145.035 M82.649 145.015 C 82.512 145.373,82.415 145.966,82.434 146.333 C 82.453 146.700,82.627 146.469,82.821 145.820 C 83.198 144.558,83.065 143.933,82.649 145.015 M396.080 146.600 C 396.080 147.040,396.224 147.850,396.400 148.400 C 396.654 149.192,396.720 149.233,396.720 148.600 C 396.720 148.160,396.576 147.350,396.400 146.800 C 396.146 146.008,396.080 145.967,396.080 146.600 M286.981 148.037 C 286.629 148.718,286.412 149.345,286.499 149.432 C 286.586 149.519,286.956 148.962,287.322 148.195 C 288.144 146.470,287.859 146.338,286.981 148.037 M44.253 148.436 C 44.114 149.131,44.021 150.172,44.047 150.750 C 44.072 151.328,44.255 150.827,44.452 149.639 C 44.837 147.321,44.673 146.334,44.253 148.436 M257.150 149.300 C 256.652 150.015,255.785 151.221,255.222 151.980 C 254.660 152.739,254.426 153.223,254.702 153.055 C 255.243 152.727,258.553 148.000,258.242 148.000 C 258.139 148.000,257.647 148.585,257.150 149.300 M195.256 148.800 C 195.256 149.130,195.411 149.760,195.600 150.200 C 195.817 150.704,195.944 150.778,195.944 150.400 C 195.944 150.070,195.789 149.440,195.600 149.000 C 195.383 148.496,195.256 148.422,195.256 148.800 M81.840 150.440 C 81.693 151.357,81.652 152.185,81.747 152.280 C 81.842 152.376,82.046 151.710,82.200 150.800 C 82.354 149.890,82.396 149.062,82.293 148.960 C 82.190 148.857,81.987 149.523,81.840 150.440 M338.200 149.219 C 337.642 149.471,337.885 149.507,339.000 149.338 C 339.880 149.204,340.675 149.028,340.767 148.947 C 341.110 148.644,338.968 148.871,338.200 149.219 M343.233 148.947 C 343.325 149.028,344.120 149.204,345.000 149.338 C 346.115 149.507,346.358 149.471,345.800 149.219 C 345.032 148.871,342.890 148.644,343.233 148.947 M334.000 150.018 C 333.562 150.315,333.724 150.352,334.600 150.156 C 336.071 149.827,336.390 149.598,335.367 149.606 C 334.945 149.609,334.330 149.795,334.000 150.018 M346.833 149.744 C 346.925 149.823,347.540 150.008,348.200 150.156 C 349.076 150.352,349.238 150.315,348.800 150.018 C 348.260 149.653,346.432 149.398,346.833 149.744 M350.396 151.083 C 350.944 151.477,352.114 152.422,352.996 153.183 L 354.600 154.566 353.312 153.177 C 352.604 152.412,351.434 151.467,350.712 151.076 C 349.446 150.390,349.435 150.391,350.396 151.083 M284.672 153.419 C 284.302 154.193,284.004 155.046,284.009 155.314 C 284.014 155.581,284.377 155.008,284.816 154.040 C 285.767 151.944,285.639 151.391,284.672 153.419 M396.942 155.400 C 396.941 157.380,397.008 158.240,397.092 157.312 C 397.176 156.384,397.177 154.764,397.095 153.712 C 397.012 152.660,396.943 153.420,396.942 155.400 M43.400 153.600 C 43.248 154.291,43.207 154.941,43.309 155.042 C 43.411 155.144,43.609 154.653,43.750 153.950 C 44.083 152.283,43.760 151.960,43.400 153.600 M81.053 154.036 C 80.914 154.731,80.821 155.773,80.847 156.350 C 80.872 156.928,81.055 156.427,81.252 155.239 C 81.637 152.921,81.473 151.934,81.053 154.036 M324.985 155.700 L 323.000 157.800 325.100 155.815 C 327.051 153.971,327.383 153.600,327.085 153.600 C 327.022 153.600,326.077 154.545,324.985 155.700 M196.812 154.400 C 196.812 154.730,196.987 155.270,197.200 155.600 C 197.545 156.133,197.588 156.133,197.588 155.600 C 197.588 155.270,197.413 154.730,197.200 154.400 C 196.855 153.867,196.812 153.867,196.812 154.400 M158.456 155.200 C 158.456 155.530,158.611 156.160,158.800 156.600 C 159.017 157.104,159.144 157.178,159.144 156.800 C 159.144 156.470,158.989 155.840,158.800 155.400 C 158.583 154.896,158.456 154.822,158.456 155.200 M355.234 156.200 C 355.234 156.420,355.578 157.230,356.000 158.000 C 356.422 158.770,356.766 159.220,356.766 159.000 C 356.766 158.780,356.422 157.970,356.000 157.200 C 355.578 156.430,355.234 155.980,355.234 156.200 M197.844 157.400 C 198.173 158.871,198.402 159.190,198.394 158.167 C 198.391 157.745,198.205 157.130,197.982 156.800 C 197.685 156.362,197.648 156.524,197.844 157.400 M42.854 157.600 C 42.819 158.150,42.696 159.050,42.583 159.600 L 42.377 160.600 42.807 159.615 C 43.043 159.074,43.165 158.174,43.078 157.615 L 42.920 156.600 42.854 157.600 M250.998 158.002 C 250.598 158.444,250.366 158.899,250.482 159.015 C 250.597 159.130,250.990 158.769,251.355 158.212 C 252.152 156.996,251.993 156.902,250.998 158.002 M80.200 159.200 C 80.048 159.891,80.007 160.541,80.109 160.642 C 80.211 160.744,80.409 160.253,80.550 159.550 C 80.883 157.883,80.560 157.560,80.200 159.200 M322.200 159.200 C 321.859 159.860,321.669 160.400,321.779 160.400 C 321.889 160.400,322.259 159.860,322.600 159.200 C 322.941 158.540,323.131 158.000,323.021 158.000 C 322.911 158.000,322.541 158.540,322.200 159.200 M282.629 159.429 C 282.481 160.015,282.438 160.572,282.532 160.666 C 282.627 160.760,282.824 160.358,282.971 159.771 C 283.119 159.185,283.162 158.628,283.068 158.534 C 282.973 158.440,282.776 158.842,282.629 159.429 M249.544 160.300 C 248.393 161.689,247.906 162.400,248.104 162.400 C 248.214 162.400,248.786 161.770,249.373 161.000 C 250.463 159.571,250.595 159.032,249.544 160.300 M41.853 162.036 C 41.714 162.731,41.621 163.773,41.647 164.350 C 41.672 164.928,41.855 164.427,42.052 163.239 C 42.437 160.921,42.273 159.934,41.853 162.036 M356.880 161.400 C 356.880 161.840,357.024 162.650,357.200 163.200 C 357.454 163.992,357.520 164.033,357.520 163.400 C 357.520 162.960,357.376 162.150,357.200 161.600 C 356.946 160.808,356.880 160.767,356.880 161.400 M79.659 163.000 C 79.620 163.660,79.496 164.650,79.383 165.200 L 79.177 166.200 79.608 165.214 C 79.844 164.672,79.968 163.682,79.883 163.014 L 79.728 161.800 79.659 163.000 M319.850 163.591 C 319.493 164.485,319.208 165.438,319.219 165.708 C 319.229 165.979,319.585 165.311,320.009 164.224 C 320.433 163.137,320.718 162.184,320.640 162.107 C 320.563 162.030,320.208 162.698,319.850 163.591 M396.229 163.029 C 396.081 163.615,396.038 164.172,396.132 164.266 C 396.227 164.360,396.424 163.958,396.571 163.371 C 396.719 162.785,396.762 162.228,396.668 162.134 C 396.573 162.040,396.376 162.442,396.229 163.029 M200.244 165.000 C 200.573 166.471,200.802 166.790,200.794 165.767 C 200.791 165.345,200.605 164.730,200.382 164.400 C 200.085 163.962,200.048 164.124,200.244 165.000 M281.249 165.400 C 281.216 165.840,281.096 166.650,280.983 167.200 L 280.777 168.200 281.206 167.219 C 281.442 166.679,281.561 165.869,281.472 165.419 C 281.313 164.621,281.307 164.621,281.249 165.400 M41.029 167.429 C 40.881 168.015,40.838 168.572,40.932 168.666 C 41.027 168.760,41.224 168.358,41.371 167.771 C 41.519 167.185,41.562 166.628,41.468 166.534 C 41.373 166.440,41.176 166.842,41.029 167.429 M78.600 168.000 C 78.446 168.910,78.404 169.738,78.507 169.840 C 78.610 169.943,78.813 169.277,78.960 168.360 C 79.107 167.443,79.148 166.615,79.053 166.520 C 78.958 166.424,78.754 167.090,78.600 168.000 M243.808 168.442 C 243.001 169.565,242.532 170.365,242.766 170.221 C 243.252 169.920,245.732 166.400,245.457 166.400 C 245.357 166.400,244.615 167.319,243.808 168.442 M395.450 167.650 C 395.117 169.317,395.440 169.640,395.800 168.000 C 395.952 167.309,395.993 166.659,395.891 166.558 C 395.789 166.456,395.591 166.947,395.450 167.650 M162.445 167.200 C 162.453 167.530,162.806 168.520,163.229 169.400 C 163.652 170.280,163.886 170.562,163.749 170.026 C 163.373 168.561,162.429 166.514,162.445 167.200 M200.812 167.200 C 200.812 167.530,200.987 168.070,201.200 168.400 C 201.545 168.933,201.588 168.933,201.588 168.400 C 201.588 168.070,201.413 167.530,201.200 167.200 C 200.855 166.667,200.812 166.667,200.812 167.200 M357.049 168.215 C 356.912 168.573,356.826 169.706,356.859 170.733 C 356.916 172.560,356.923 172.549,357.190 170.200 C 357.480 167.637,357.448 167.177,357.049 168.215 M280.256 169.284 C 280.121 169.788,280.031 170.830,280.055 171.600 C 280.089 172.669,280.175 172.480,280.418 170.802 C 280.753 168.492,280.672 167.733,280.256 169.284 M317.453 172.504 C 317.043 174.383,316.804 176.163,316.922 176.460 C 317.040 176.757,317.151 176.576,317.168 176.058 C 317.186 175.539,317.480 174.036,317.821 172.717 C 318.163 171.398,318.388 170.041,318.321 169.703 C 318.255 169.364,317.864 170.624,317.453 172.504 M40.464 170.650 C 40.429 171.338,40.311 172.508,40.201 173.250 L 40.003 174.600 40.424 173.258 C 40.655 172.520,40.773 171.350,40.686 170.658 L 40.528 169.400 40.464 170.650 M394.629 170.629 C 394.481 171.215,394.438 171.772,394.532 171.866 C 394.627 171.960,394.824 171.558,394.971 170.971 C 395.119 170.385,395.162 169.828,395.068 169.734 C 394.973 169.640,394.776 170.042,394.629 170.629 M78.049 172.200 C 78.016 172.640,77.896 173.450,77.783 174.000 L 77.577 175.000 78.006 174.019 C 78.242 173.479,78.361 172.669,78.272 172.219 C 78.113 171.421,78.107 171.421,78.049 172.200 M279.429 174.629 C 279.281 175.215,279.238 175.772,279.332 175.866 C 279.427 175.960,279.624 175.558,279.771 174.971 C 279.919 174.385,279.962 173.828,279.868 173.734 C 279.773 173.640,279.576 174.042,279.429 174.629 M356.454 174.667 C 356.425 175.144,356.296 175.864,356.170 176.267 C 355.952 176.961,355.964 176.962,356.396 176.288 C 356.647 175.897,356.775 175.177,356.681 174.688 C 356.509 173.801,356.509 173.801,356.454 174.667 M238.885 175.500 C 235.701 180.051,233.596 183.249,233.917 183.051 C 234.371 182.771,240.098 174.400,239.836 174.400 C 239.736 174.400,239.308 174.895,238.885 175.500 M39.422 176.222 C 39.272 177.025,39.228 177.762,39.326 177.860 C 39.424 177.957,39.627 177.381,39.778 176.578 C 39.928 175.775,39.972 175.038,39.874 174.940 C 39.776 174.843,39.573 175.419,39.422 176.222 M77.046 177.446 C 76.900 178.693,76.859 179.793,76.957 179.890 C 77.054 179.988,77.261 179.054,77.415 177.815 C 77.570 176.577,77.610 175.477,77.505 175.371 C 77.399 175.266,77.193 176.199,77.046 177.446 M278.860 178.050 C 278.827 178.628,278.711 179.708,278.601 180.450 L 278.403 181.800 278.824 180.457 C 279.055 179.719,279.172 178.639,279.082 178.057 L 278.920 177.000 278.860 178.050 M316.250 179.650 C 315.917 181.317,316.240 181.640,316.600 180.000 C 316.752 179.309,316.793 178.659,316.691 178.558 C 316.589 178.456,316.391 178.947,316.250 179.650 M354.272 181.019 C 353.332 182.989,353.464 183.324,354.447 181.462 C 354.893 180.616,355.187 179.854,355.101 179.767 C 355.014 179.681,354.641 180.244,354.272 181.019 M391.072 181.019 C 390.132 182.989,390.264 183.324,391.247 181.462 C 391.693 180.616,391.987 179.854,391.901 179.767 C 391.814 179.681,391.441 180.244,391.072 181.019 M38.650 181.250 C 38.317 182.917,38.640 183.240,39.000 181.600 C 39.152 180.909,39.193 180.259,39.091 180.158 C 38.989 180.056,38.791 180.547,38.650 181.250 M76.200 182.000 C 76.048 182.691,76.007 183.341,76.109 183.442 C 76.211 183.544,76.409 183.053,76.550 182.350 C 76.883 180.683,76.560 180.360,76.200 182.000 M315.466 183.968 C 315.319 185.378,315.274 186.607,315.366 186.700 C 315.614 186.947,316.115 182.546,315.910 181.930 C 315.813 181.640,315.614 182.557,315.466 183.968 M277.856 182.884 C 277.721 183.388,277.630 184.340,277.653 185.000 C 277.681 185.828,277.797 185.584,278.026 184.213 C 278.376 182.123,278.274 181.326,277.856 182.884 M37.815 185.415 C 37.661 186.654,37.617 187.750,37.719 187.852 C 37.820 187.954,38.030 187.023,38.185 185.785 C 38.339 184.546,38.383 183.450,38.281 183.348 C 38.180 183.246,37.970 184.177,37.815 185.415 M352.346 184.700 C 351.098 186.706,350.916 187.221,351.886 186.000 C 352.782 184.873,353.718 183.200,353.454 183.200 C 353.358 183.200,352.859 183.875,352.346 184.700 M75.664 185.867 C 75.629 186.564,75.496 187.464,75.370 187.867 C 75.153 188.559,75.165 188.560,75.594 187.891 C 75.845 187.502,75.977 186.602,75.889 185.891 L 75.728 184.600 75.664 185.867 M231.550 186.100 C 231.052 186.815,230.185 188.021,229.622 188.780 C 229.060 189.539,228.792 190.043,229.027 189.901 C 229.533 189.595,232.941 184.800,232.653 184.800 C 232.544 184.800,232.047 185.385,231.550 186.100 M387.701 187.040 C 387.206 187.604,387.011 187.996,387.267 187.911 C 387.698 187.767,389.080 185.991,388.749 186.007 C 388.667 186.011,388.195 186.476,387.701 187.040 M169.214 186.854 C 169.206 186.994,169.463 187.714,169.784 188.454 C 170.106 189.194,170.369 189.530,170.370 189.200 C 170.372 188.624,169.243 186.334,169.214 186.854 M277.029 188.229 C 276.881 188.815,276.838 189.372,276.932 189.466 C 277.027 189.560,277.224 189.158,277.371 188.571 C 277.519 187.985,277.562 187.428,277.468 187.334 C 277.373 187.240,277.176 187.642,277.029 188.229 M314.650 188.450 C 314.317 190.117,314.640 190.440,315.000 188.800 C 315.152 188.109,315.193 187.459,315.091 187.358 C 314.989 187.256,314.791 187.747,314.650 188.450 M37.029 189.829 C 36.881 190.415,36.838 190.972,36.932 191.066 C 37.027 191.160,37.224 190.758,37.371 190.171 C 37.519 189.585,37.562 189.028,37.468 188.934 C 37.373 188.840,37.176 189.242,37.029 189.829 M74.585 190.985 C 74.430 192.223,74.390 193.323,74.495 193.429 C 74.601 193.534,74.807 192.601,74.954 191.354 C 75.100 190.107,75.141 189.007,75.043 188.910 C 74.946 188.812,74.739 189.746,74.585 190.985 M313.850 193.650 C 313.517 195.317,313.840 195.640,314.200 194.000 C 314.352 193.309,314.393 192.659,314.291 192.558 C 314.189 192.456,313.991 192.947,313.850 193.650 M276.093 194.000 C 276.093 194.770,276.175 195.085,276.276 194.700 C 276.376 194.315,276.376 193.685,276.276 193.300 C 276.175 192.915,276.093 193.230,276.093 194.000 M36.222 195.022 C 36.072 195.825,36.028 196.562,36.126 196.660 C 36.224 196.757,36.427 196.181,36.578 195.378 C 36.728 194.575,36.772 193.838,36.674 193.740 C 36.576 193.643,36.373 194.219,36.222 195.022 M73.829 195.829 C 73.681 196.415,73.638 196.972,73.732 197.066 C 73.827 197.160,74.024 196.758,74.171 196.171 C 74.319 195.585,74.362 195.028,74.268 194.934 C 74.173 194.840,73.976 195.242,73.829 195.829 M223.808 197.242 C 223.001 198.365,222.532 199.165,222.766 199.021 C 223.252 198.720,225.732 195.200,225.457 195.200 C 225.357 195.200,224.615 196.119,223.808 197.242 M313.000 198.000 C 312.844 199.347,312.801 200.534,312.905 200.638 C 313.009 200.742,313.219 199.722,313.371 198.371 C 313.524 197.021,313.567 195.834,313.467 195.733 C 313.366 195.633,313.156 196.653,313.000 198.000 M275.449 196.615 C 275.312 196.973,275.218 197.656,275.241 198.133 C 275.267 198.681,275.403 198.486,275.610 197.603 C 275.960 196.116,275.865 195.533,275.449 196.615 M35.453 198.436 C 35.314 199.131,35.221 200.173,35.247 200.750 C 35.272 201.328,35.455 200.827,35.652 199.639 C 36.037 197.321,35.873 196.334,35.453 198.436 M73.301 199.400 C 73.305 200.280,73.387 200.593,73.483 200.095 C 73.579 199.598,73.575 198.878,73.475 198.495 C 73.375 198.113,73.296 198.520,73.301 199.400 M173.656 199.600 C 173.656 199.930,173.811 200.560,174.000 201.000 C 174.217 201.504,174.344 201.578,174.344 201.200 C 174.344 200.870,174.189 200.240,174.000 199.800 C 173.783 199.296,173.656 199.222,173.656 199.600 M274.650 202.050 C 274.317 203.717,274.640 204.040,275.000 202.400 C 275.152 201.709,275.193 201.059,275.091 200.958 C 274.989 200.856,274.791 201.347,274.650 202.050 M312.200 202.400 C 312.048 203.091,312.007 203.741,312.109 203.842 C 312.211 203.944,312.409 203.453,312.550 202.750 C 312.883 201.083,312.560 200.760,312.200 202.400 M34.629 203.829 C 34.481 204.415,34.438 204.972,34.532 205.066 C 34.627 205.160,34.824 204.758,34.971 204.171 C 35.119 203.585,35.162 203.028,35.068 202.934 C 34.973 202.840,34.776 203.242,34.629 203.829 M72.256 204.084 C 72.121 204.588,72.027 205.360,72.046 205.800 C 72.065 206.240,72.245 205.898,72.446 205.040 C 72.836 203.378,72.670 202.540,72.256 204.084 M217.825 205.827 C 216.815 207.272,216.172 208.341,216.396 208.202 C 216.872 207.908,220.119 203.200,219.846 203.200 C 219.745 203.200,218.835 204.382,217.825 205.827 M273.853 205.236 C 273.714 205.931,273.621 206.972,273.647 207.550 C 273.672 208.128,273.855 207.627,274.052 206.439 C 274.437 204.121,274.273 203.134,273.853 205.236 M311.455 207.455 C 311.313 208.486,311.274 209.408,311.369 209.502 C 311.463 209.596,311.665 208.839,311.818 207.818 C 311.971 206.798,312.010 205.876,311.904 205.771 C 311.798 205.665,311.596 206.423,311.455 207.455 M33.833 208.433 C 33.683 209.566,33.641 210.574,33.739 210.672 C 33.837 210.771,34.045 209.928,34.200 208.800 C 34.355 207.672,34.398 206.664,34.294 206.561 C 34.191 206.458,33.984 207.300,33.833 208.433 M71.429 209.429 C 71.281 210.015,71.238 210.572,71.332 210.666 C 71.427 210.760,71.624 210.358,71.771 209.771 C 71.919 209.185,71.962 208.628,71.868 208.534 C 71.773 208.440,71.576 208.842,71.429 209.429 M176.893 210.000 C 176.893 210.770,176.975 211.085,177.076 210.700 C 177.176 210.315,177.176 209.685,177.076 209.300 C 176.975 208.915,176.893 209.230,176.893 210.000 M273.049 210.215 C 272.912 210.573,272.815 211.166,272.834 211.533 C 272.853 211.900,273.027 211.669,273.221 211.020 C 273.598 209.758,273.465 209.133,273.049 210.215 M310.656 210.884 C 310.521 211.388,310.428 212.250,310.449 212.800 C 310.472 213.389,310.631 213.071,310.836 212.025 C 311.203 210.152,311.073 209.327,310.656 210.884 M214.649 211.015 C 214.512 211.373,214.421 212.146,214.446 212.733 C 214.480 213.532,214.570 213.398,214.804 212.200 C 215.135 210.500,215.062 209.940,214.649 211.015 M33.056 212.084 C 32.921 212.588,32.827 213.360,32.846 213.800 C 32.865 214.240,33.045 213.898,33.246 213.040 C 33.636 211.378,33.470 210.540,33.056 212.084 M70.646 213.846 C 70.500 215.093,70.459 216.193,70.557 216.290 C 70.654 216.388,70.861 215.454,71.015 214.215 C 71.170 212.977,71.210 211.877,71.105 211.771 C 70.999 211.666,70.793 212.599,70.646 213.846 M176.454 213.600 C 176.419 214.150,176.296 215.050,176.183 215.600 L 175.977 216.600 176.407 215.615 C 176.643 215.074,176.765 214.174,176.678 213.615 L 176.520 212.600 176.454 213.600 M272.493 214.400 C 272.493 215.170,272.575 215.485,272.676 215.100 C 272.776 214.715,272.776 214.085,272.676 213.700 C 272.575 213.315,272.493 213.630,272.493 214.400 M309.853 216.036 C 309.714 216.731,309.622 217.863,309.649 218.550 C 309.678 219.294,309.838 218.840,310.043 217.428 C 310.411 214.904,310.276 213.918,309.853 216.036 M213.829 216.229 C 213.681 216.815,213.638 217.372,213.732 217.466 C 213.827 217.560,214.024 217.158,214.171 216.571 C 214.319 215.985,214.362 215.428,214.268 215.334 C 214.173 215.240,213.976 215.642,213.829 216.229 M385.516 215.470 C 385.889 215.620,385.977 216.354,385.834 218.139 C 385.656 220.372,385.670 220.434,385.989 218.800 C 386.548 215.936,386.488 215.196,385.700 215.232 C 385.257 215.252,385.189 215.339,385.516 215.470 M32.229 217.429 C 32.081 218.015,32.038 218.572,32.132 218.666 C 32.227 218.760,32.424 218.358,32.571 217.771 C 32.719 217.185,32.762 216.628,32.668 216.534 C 32.573 216.440,32.376 216.842,32.229 217.429 M69.800 218.000 C 69.648 218.691,69.607 219.341,69.709 219.442 C 69.811 219.544,70.009 219.053,70.150 218.350 C 70.483 216.683,70.160 216.360,69.800 218.000 M175.469 217.956 C 175.321 218.695,175.220 219.683,175.244 220.150 C 175.268 220.618,175.447 220.190,175.642 219.200 C 175.837 218.210,175.938 217.223,175.867 217.006 C 175.796 216.790,175.617 217.217,175.469 217.956 M271.456 218.884 C 271.321 219.388,271.232 220.520,271.258 221.400 C 271.297 222.720,271.359 222.580,271.613 220.600 C 271.937 218.078,271.870 217.341,271.456 218.884 M213.046 220.646 C 212.900 221.893,212.859 222.993,212.957 223.090 C 213.054 223.188,213.261 222.254,213.415 221.015 C 213.570 219.777,213.610 218.677,213.505 218.571 C 213.399 218.466,213.193 219.399,213.046 220.646 M347.646 219.667 C 347.621 220.034,347.496 220.664,347.370 221.067 C 347.152 221.762,347.163 221.763,347.597 221.087 C 347.848 220.696,347.973 220.066,347.873 219.687 C 347.711 219.068,347.688 219.066,347.646 219.667 M31.385 221.785 C 31.230 223.023,31.190 224.123,31.295 224.229 C 31.401 224.334,31.607 223.401,31.754 222.154 C 31.900 220.907,31.941 219.807,31.843 219.710 C 31.746 219.612,31.539 220.546,31.385 221.785 M309.334 224.000 C 309.334 225.650,309.405 226.325,309.491 225.500 C 309.578 224.675,309.578 223.325,309.491 222.500 C 309.405 221.675,309.334 222.350,309.334 224.000 M69.040 223.240 C 68.893 224.157,68.852 224.985,68.947 225.080 C 69.042 225.176,69.246 224.510,69.400 223.600 C 69.554 222.690,69.596 221.862,69.493 221.760 C 69.390 221.657,69.187 222.323,69.040 223.240 M174.854 222.667 C 174.825 223.144,174.696 223.864,174.570 224.267 C 174.352 224.961,174.364 224.962,174.796 224.288 C 175.047 223.897,175.175 223.177,175.081 222.688 C 174.909 221.801,174.909 221.801,174.854 222.667 M385.029 223.029 C 384.881 223.615,384.838 224.172,384.932 224.266 C 385.027 224.360,385.224 223.958,385.371 223.371 C 385.519 222.785,385.562 222.228,385.468 222.134 C 385.373 222.040,385.176 222.442,385.029 223.029 M212.256 224.484 C 212.121 224.988,212.027 225.760,212.046 226.200 C 212.065 226.640,212.245 226.298,212.446 225.440 C 212.836 223.778,212.670 222.940,212.256 224.484 M345.478 225.405 C 345.112 226.172,344.895 226.800,344.996 226.800 C 345.270 226.800,346.484 224.351,346.301 224.168 C 346.214 224.081,345.844 224.638,345.478 225.405 M270.963 231.200 C 270.963 234.830,271.023 236.315,271.098 234.500 C 271.172 232.685,271.172 229.715,271.098 227.900 C 271.023 226.085,270.963 227.570,270.963 231.200 M384.240 226.440 C 384.093 227.357,384.052 228.185,384.147 228.280 C 384.242 228.376,384.446 227.710,384.600 226.800 C 384.754 225.890,384.796 225.062,384.693 224.960 C 384.590 224.857,384.387 225.523,384.240 226.440 M30.649 225.815 C 30.512 226.173,30.415 226.766,30.434 227.133 C 30.453 227.500,30.627 227.269,30.821 226.620 C 31.198 225.358,31.065 224.733,30.649 225.815 M68.200 227.600 C 68.045 228.728,68.002 229.736,68.106 229.839 C 68.209 229.942,68.416 229.100,68.567 227.967 C 68.717 226.834,68.759 225.826,68.661 225.728 C 68.563 225.629,68.355 226.472,68.200 227.600 M174.060 226.450 C 174.027 227.028,173.911 228.107,173.801 228.850 L 173.603 230.200 174.024 228.857 C 174.255 228.119,174.372 227.039,174.282 226.457 L 174.120 225.400 174.060 226.450 M309.612 227.600 C 309.612 227.930,309.787 228.470,310.000 228.800 C 310.345 229.333,310.388 229.333,310.388 228.800 C 310.388 228.470,310.213 227.930,310.000 227.600 C 309.655 227.067,309.612 227.067,309.612 227.600 M211.450 230.050 C 211.309 230.753,211.269 231.402,211.359 231.492 C 211.450 231.583,211.648 231.091,211.800 230.400 C 211.952 229.709,211.993 229.059,211.891 228.958 C 211.789 228.856,211.591 229.347,211.450 230.050 M29.462 232.865 C 29.056 234.723,28.806 236.683,28.907 237.222 C 29.054 238.002,29.102 237.929,29.146 236.858 C 29.175 236.119,29.480 234.436,29.821 233.117 C 30.163 231.798,30.388 230.441,30.321 230.103 C 30.255 229.764,29.868 231.007,29.462 232.865 M310.412 229.807 C 310.398 230.274,312.321 233.200,312.642 233.200 C 312.759 233.200,312.510 232.705,312.088 232.100 C 311.667 231.495,311.120 230.640,310.873 230.200 C 310.626 229.760,310.419 229.583,310.412 229.807 M341.578 231.031 C 340.820 231.817,339.345 233.018,338.300 233.698 C 336.153 235.096,335.817 235.522,337.583 234.609 C 338.727 234.017,343.627 229.644,343.178 229.615 C 343.057 229.607,342.337 230.244,341.578 231.031 M67.396 232.016 C 67.123 233.260,67.683 234.411,68.549 234.388 C 68.797 234.381,68.668 234.183,68.263 233.947 C 67.682 233.610,67.580 233.232,67.781 232.159 C 68.098 230.473,67.763 230.348,67.396 232.016 M173.056 231.684 C 172.921 232.188,172.827 232.960,172.846 233.400 C 172.865 233.840,173.045 233.498,173.246 232.640 C 173.636 230.978,173.470 230.140,173.056 231.684 M382.277 233.477 C 381.900 234.493,381.658 235.391,381.738 235.472 C 381.819 235.552,382.200 234.793,382.585 233.785 C 382.970 232.776,383.212 231.879,383.123 231.790 C 383.035 231.701,382.654 232.460,382.277 233.477 M210.600 234.400 C 210.445 235.528,210.402 236.536,210.506 236.639 C 210.609 236.742,210.816 235.900,210.967 234.767 C 211.117 233.634,211.159 232.626,211.061 232.528 C 210.963 232.429,210.755 233.272,210.600 234.400 M315.600 235.419 C 315.600 235.713,318.049 236.850,318.409 236.724 C 318.604 236.656,318.051 236.298,317.182 235.930 C 316.312 235.561,315.600 235.331,315.600 235.419 M172.449 236.200 C 172.416 236.640,172.296 237.450,172.183 238.000 L 171.977 239.000 172.406 238.019 C 172.642 237.479,172.761 236.669,172.672 236.219 C 172.513 235.421,172.507 235.421,172.449 236.200 M123.422 237.422 C 123.272 238.225,123.228 238.962,123.326 239.060 C 123.424 239.157,123.627 238.581,123.778 237.778 C 123.928 236.975,123.972 236.238,123.874 236.140 C 123.776 236.043,123.573 236.619,123.422 237.422 M321.400 237.200 C 323.092 237.631,324.544 237.631,323.200 237.200 C 322.650 237.024,321.750 236.883,321.200 236.887 C 320.302 236.894,320.322 236.926,321.400 237.200 M328.000 237.200 C 327.208 237.454,327.167 237.520,327.800 237.520 C 328.240 237.520,329.050 237.376,329.600 237.200 C 330.392 236.946,330.433 236.880,329.800 236.880 C 329.360 236.880,328.550 237.024,328.000 237.200 M209.822 238.622 C 209.672 239.425,209.628 240.162,209.726 240.260 C 209.824 240.357,210.027 239.781,210.178 238.978 C 210.328 238.175,210.372 237.438,210.274 237.340 C 210.176 237.243,209.973 237.819,209.822 238.622 M379.482 240.211 C 378.892 241.415,378.494 242.400,378.598 242.400 C 378.867 242.400,380.884 238.351,380.705 238.171 C 380.623 238.089,380.073 239.007,379.482 240.211 M28.229 239.829 C 28.081 240.415,28.038 240.972,28.132 241.066 C 28.227 241.160,28.424 240.758,28.571 240.171 C 28.719 239.585,28.762 239.028,28.668 238.934 C 28.573 238.840,28.376 239.242,28.229 239.829 M171.400 241.200 C 171.245 242.328,171.202 243.336,171.306 243.439 C 171.409 243.542,171.616 242.700,171.767 241.567 C 171.917 240.434,171.959 239.426,171.861 239.328 C 171.763 239.229,171.555 240.072,171.400 241.200 M271.228 240.633 C 271.244 241.275,271.416 242.160,271.610 242.600 C 271.847 243.134,271.886 242.802,271.727 241.600 C 271.446 239.480,271.188 238.980,271.228 240.633 M122.434 243.100 C 121.666 246.885,121.492 249.093,122.191 246.200 C 122.892 243.293,123.368 240.400,123.146 240.400 C 123.056 240.400,122.736 241.615,122.434 243.100 M209.055 243.455 C 208.913 244.486,208.874 245.408,208.969 245.502 C 209.063 245.596,209.265 244.839,209.418 243.818 C 209.571 242.798,209.610 241.876,209.504 241.771 C 209.398 241.665,209.196 242.423,209.055 243.455 M27.455 244.655 C 27.313 245.686,27.274 246.608,27.369 246.702 C 27.463 246.796,27.665 246.039,27.818 245.018 C 27.971 243.998,28.010 243.076,27.904 242.971 C 27.798 242.865,27.596 243.623,27.455 244.655 M376.255 245.700 C 375.086 247.497,374.823 248.068,375.562 247.200 C 376.719 245.842,378.610 242.800,378.296 242.800 C 378.211 242.800,377.292 244.105,376.255 245.700 M272.006 244.233 C 272.009 244.655,272.195 245.270,272.418 245.600 C 272.715 246.038,272.752 245.876,272.556 245.000 C 272.227 243.529,271.998 243.210,272.006 244.233 M170.629 245.829 C 170.481 246.415,170.438 246.972,170.532 247.066 C 170.627 247.160,170.824 246.758,170.971 246.171 C 171.119 245.585,171.162 245.028,171.068 244.934 C 170.973 244.840,170.776 245.242,170.629 245.829 M208.256 246.884 C 208.121 247.388,208.030 248.340,208.053 249.000 C 208.081 249.828,208.197 249.584,208.426 248.213 C 208.776 246.123,208.674 245.326,208.256 246.884 M26.656 248.084 C 26.521 248.588,26.430 249.540,26.453 250.200 C 26.481 251.028,26.597 250.784,26.826 249.413 C 27.176 247.323,27.074 246.526,26.656 248.084 M370.421 252.930 C 366.717 256.919,366.704 256.940,369.751 254.000 C 372.355 251.486,374.807 248.717,374.327 248.830 C 374.257 248.847,372.500 250.692,370.421 252.930 M170.049 249.800 C 170.016 250.240,169.896 251.050,169.783 251.600 L 169.577 252.600 170.006 251.619 C 170.242 251.079,170.361 250.269,170.272 249.819 C 170.113 249.021,170.107 249.021,170.049 249.800 M121.000 251.200 C 120.848 251.891,120.807 252.541,120.909 252.642 C 121.011 252.744,121.209 252.253,121.350 251.550 C 121.683 249.883,121.360 249.560,121.000 251.200 M207.400 252.400 C 207.248 253.091,207.207 253.741,207.309 253.842 C 207.411 253.944,207.609 253.453,207.750 252.750 C 207.891 252.047,207.931 251.398,207.841 251.308 C 207.750 251.217,207.552 251.709,207.400 252.400 M25.850 253.650 C 25.517 255.317,25.840 255.640,26.200 254.000 C 26.352 253.309,26.393 252.659,26.291 252.558 C 26.189 252.456,25.991 252.947,25.850 253.650 M169.000 254.800 C 168.845 255.928,168.802 256.936,168.906 257.039 C 169.009 257.142,169.216 256.300,169.367 255.167 C 169.517 254.034,169.559 253.026,169.461 252.928 C 169.363 252.829,169.155 253.672,169.000 254.800 M120.459 254.600 C 120.420 255.260,120.296 256.250,120.183 256.800 L 119.977 257.800 120.408 256.814 C 120.644 256.272,120.768 255.282,120.683 254.614 L 120.528 253.400 120.459 254.600 M206.860 255.650 C 206.827 256.228,206.711 257.308,206.601 258.050 L 206.403 259.400 206.824 258.057 C 207.055 257.319,207.172 256.239,207.082 255.657 L 206.920 254.600 206.860 255.650 M25.260 256.850 C 25.227 257.428,25.111 258.507,25.001 259.250 L 24.803 260.600 25.224 259.257 C 25.455 258.519,25.572 257.439,25.482 256.857 L 25.320 255.800 25.260 256.850 M119.400 259.600 C 119.246 260.510,119.204 261.338,119.307 261.440 C 119.410 261.543,119.613 260.877,119.760 259.960 C 119.907 259.043,119.948 258.215,119.853 258.120 C 119.758 258.024,119.554 258.690,119.400 259.600 M205.856 260.484 C 205.721 260.988,205.627 261.760,205.646 262.200 C 205.665 262.640,205.845 262.298,206.046 261.440 C 206.436 259.778,206.270 258.940,205.856 260.484 M359.104 261.342 C 356.152 263.035,355.614 263.594,358.200 262.280 C 360.086 261.322,362.039 260.026,361.600 260.025 C 361.490 260.024,360.367 260.617,359.104 261.342 M24.200 262.400 C 24.048 263.091,24.007 263.741,24.109 263.842 C 24.211 263.944,24.409 263.453,24.550 262.750 C 24.883 261.083,24.560 260.760,24.200 262.400 M167.693 263.200 C 167.693 263.970,167.775 264.285,167.876 263.900 C 167.976 263.515,167.976 262.885,167.876 262.500 C 167.775 262.115,167.693 262.430,167.693 263.200 M118.854 263.867 C 118.825 264.344,118.696 265.064,118.570 265.467 C 118.352 266.161,118.364 266.162,118.796 265.488 C 119.047 265.097,119.175 264.377,119.081 263.888 C 118.909 263.001,118.909 263.001,118.854 263.867 M286.400 263.396 C 286.400 263.670,288.849 264.884,289.032 264.701 C 289.119 264.614,288.562 264.244,287.795 263.878 C 287.028 263.512,286.400 263.295,286.400 263.396 M167.337 265.769 C 167.372 266.429,167.662 267.009,168.000 267.100 C 168.401 267.207,168.448 267.151,168.140 266.930 C 167.888 266.749,167.589 266.150,167.477 265.600 C 167.301 264.739,167.282 264.762,167.337 265.769 M205.067 265.674 C 204.920 266.261,204.485 266.824,204.100 266.924 C 203.454 267.093,203.453 267.111,204.086 267.154 C 204.830 267.204,205.750 265.849,205.494 265.081 C 205.407 264.820,205.215 265.087,205.067 265.674 M345.800 266.800 C 344.693 267.082,344.677 267.109,345.600 267.147 C 346.150 267.169,346.870 267.013,347.200 266.800 C 347.881 266.360,347.529 266.360,345.800 266.800 M47.100 267.100 C 59.915 267.159,80.885 267.159,93.700 267.100 C 106.515 267.041,96.030 266.993,70.400 266.993 C 44.770 266.993,34.285 267.041,47.100 267.100 M177.300 267.100 C 182.085 267.163,189.915 267.163,194.700 267.100 C 199.485 267.036,195.570 266.984,186.000 266.984 C 176.430 266.984,172.515 267.036,177.300 267.100 M300.000 268.387 C 300.991 268.717,303.887 268.935,303.567 268.654 C 303.475 268.574,302.410 268.406,301.200 268.281 C 299.780 268.134,299.354 268.171,300.000 268.387 M337.400 268.400 L 335.800 268.686 337.200 268.696 C 337.970 268.701,339.140 268.568,339.800 268.400 C 341.428 267.986,339.713 267.986,337.400 268.400 M304.800 269.200 C 305.350 269.376,306.250 269.517,306.800 269.513 C 307.698 269.506,307.678 269.474,306.600 269.200 C 304.908 268.769,303.456 268.769,304.800 269.200 M333.200 269.200 C 331.833 269.488,331.828 269.495,333.000 269.519 C 333.660 269.533,334.560 269.389,335.000 269.200 C 335.962 268.787,335.164 268.787,333.200 269.200 M317.282 269.896 C 318.758 269.973,321.278 269.973,322.882 269.897 C 324.487 269.821,323.280 269.758,320.200 269.758 C 317.120 269.757,315.807 269.819,317.282 269.896 " stroke="none" fill="#7c7c7c" fill-rule="evenodd"></path></g></svg>